<mxfile host="Electron" modified="2023-10-14T17:53:06.703Z" agent="Mozilla/5.0 (Windows NT 10.0; Win64; x64) AppleWebKit/537.36 (KHTML, like Gecko) draw.io/22.0.2 Chrome/114.0.5735.289 Electron/25.8.4 Safari/537.36" etag="wCMMTaENGwyHKu-qJyAX" version="22.0.2" type="device">
  <diagram id="C5RBs43oDa-KdzZeNtuy" name="Page-1">
    <mxGraphModel dx="2026" dy="2366" grid="1" gridSize="10" guides="0" tooltips="1" connect="0" arrows="0" fold="1" page="1" pageScale="1" pageWidth="827" pageHeight="1169" math="0" shadow="0">
      <root>
        <mxCell id="WIyWlLk6GJQsqaUBKTNV-0" />
        <mxCell id="WIyWlLk6GJQsqaUBKTNV-1" parent="WIyWlLk6GJQsqaUBKTNV-0" />
        <mxCell id="QHBeRQjLNkS0FuJw2o_--5" value="&lt;div style=&quot;color: rgb(238, 255, 255); background-color: rgb(38, 50, 56); font-family: Consolas, &amp;quot;Courier New&amp;quot;, monospace; font-weight: normal; font-size: 14px; line-height: 19px;&quot;&gt;&lt;div&gt;&lt;span style=&quot;color: #546e7a;font-style: italic;&quot;&gt;# Iterar a través de las URL en la configuración&lt;/span&gt;&lt;/div&gt;&lt;div&gt;&lt;span style=&quot;color: #eeffff;&quot;&gt;&amp;nbsp; &amp;nbsp; &amp;nbsp; &amp;nbsp; &lt;/span&gt;&lt;span style=&quot;color: #89ddff;font-style: italic;&quot;&gt;for&lt;/span&gt;&lt;span style=&quot;color: #eeffff;&quot;&gt; site &lt;/span&gt;&lt;span style=&quot;color: #89ddff;font-style: italic;&quot;&gt;in&lt;/span&gt;&lt;span style=&quot;color: #eeffff;&quot;&gt; self&lt;/span&gt;&lt;span style=&quot;color: #89ddff;&quot;&gt;.&lt;/span&gt;&lt;span style=&quot;color: #f07178;&quot;&gt;url&lt;/span&gt;&lt;span style=&quot;color: #89ddff;&quot;&gt;[&lt;/span&gt;&lt;span style=&quot;color: #f78c6c;&quot;&gt;1&lt;/span&gt;&lt;span style=&quot;color: #89ddff;&quot;&gt;][&lt;/span&gt;&lt;span style=&quot;color: #89ddff;&quot;&gt;&#39;&lt;/span&gt;&lt;span style=&quot;color: #c3e88d;&quot;&gt;url&lt;/span&gt;&lt;span style=&quot;color: #89ddff;&quot;&gt;&#39;&lt;/span&gt;&lt;span style=&quot;color: #89ddff;&quot;&gt;]:&lt;/span&gt;&lt;/div&gt;&lt;div&gt;&lt;span style=&quot;color: #eeffff;&quot;&gt;&amp;nbsp; &amp;nbsp; &amp;nbsp; &amp;nbsp; &amp;nbsp; &amp;nbsp; file_result &lt;/span&gt;&lt;span style=&quot;color: #89ddff;&quot;&gt;=&lt;/span&gt;&lt;span style=&quot;color: #eeffff;&quot;&gt; self&lt;/span&gt;&lt;span style=&quot;color: #89ddff;&quot;&gt;.&lt;/span&gt;&lt;span style=&quot;color: #f07178;&quot;&gt;file_result&lt;/span&gt;&lt;/div&gt;&lt;div&gt;&lt;span style=&quot;color: #eeffff;&quot;&gt;&amp;nbsp; &amp;nbsp; &amp;nbsp; &amp;nbsp; &amp;nbsp; &amp;nbsp; &lt;/span&gt;&lt;span style=&quot;color: #546e7a;font-style: italic;&quot;&gt;# imprimir en que se esta buscando&lt;/span&gt;&lt;/div&gt;&lt;div&gt;&lt;span style=&quot;color: #eeffff;&quot;&gt;&amp;nbsp; &amp;nbsp; &amp;nbsp; &amp;nbsp; &amp;nbsp; &amp;nbsp; console&lt;/span&gt;&lt;span style=&quot;color: #89ddff;&quot;&gt;.&lt;/span&gt;&lt;span style=&quot;color: #f07178;&quot;&gt;print&lt;/span&gt;&lt;span style=&quot;color: #eeffff;&quot;&gt; &lt;/span&gt;&lt;span style=&quot;color: #89ddff;&quot;&gt;\&lt;/span&gt;&lt;/div&gt;&lt;div&gt;&lt;span style=&quot;color: #eeffff;&quot;&gt;&amp;nbsp; &amp;nbsp; &amp;nbsp; &amp;nbsp; &amp;nbsp; &amp;nbsp; &lt;/span&gt;&lt;span style=&quot;color: #89ddff;&quot;&gt;(&lt;/span&gt;&lt;span style=&quot;color: #c792ea;&quot;&gt;f&lt;/span&gt;&lt;span style=&quot;color: #c3e88d;&quot;&gt;&#39;&#39;&#39;&lt;/span&gt;&lt;/div&gt;&lt;div&gt;&lt;span style=&quot;color: #c3e88d;&quot;&gt;&amp;nbsp; &amp;nbsp; &amp;nbsp; &amp;nbsp; &amp;nbsp; &amp;nbsp; [green]&lt;/span&gt;&lt;span style=&quot;color: #f78c6c;&quot;&gt;{&lt;/span&gt;&lt;span style=&quot;color: #eeffff;&quot;&gt;site&lt;/span&gt;&lt;span style=&quot;color: #f78c6c;&quot;&gt;}&lt;/span&gt;&lt;span style=&quot;color: #c3e88d;&quot;&gt;[/green]&lt;/span&gt;&lt;/div&gt;&lt;div&gt;&lt;span style=&quot;color: #c3e88d;&quot;&gt;&amp;nbsp; &amp;nbsp; &amp;nbsp; &amp;nbsp; &amp;nbsp; &amp;nbsp; &#39;&#39;&#39;&lt;/span&gt;&lt;span style=&quot;color: #89ddff;&quot;&gt;)&lt;/span&gt;&lt;/div&gt;&lt;br&gt;&lt;div&gt;&lt;span style=&quot;color: #eeffff;&quot;&gt;&amp;nbsp; &amp;nbsp; &amp;nbsp; &amp;nbsp; &amp;nbsp; &amp;nbsp; &lt;/span&gt;&lt;span style=&quot;color: #546e7a;font-style: italic;&quot;&gt;# Crear una barra de progreso con tqdm&lt;/span&gt;&lt;/div&gt;&lt;div&gt;&lt;span style=&quot;color: #eeffff;&quot;&gt;&amp;nbsp; &amp;nbsp; &amp;nbsp; &amp;nbsp; &amp;nbsp; &amp;nbsp; &lt;/span&gt;&lt;span style=&quot;color: #89ddff;font-style: italic;&quot;&gt;with&lt;/span&gt;&lt;span style=&quot;color: #eeffff;&quot;&gt; &lt;/span&gt;&lt;span style=&quot;color: #82aaff;&quot;&gt;tqdm&lt;/span&gt;&lt;span style=&quot;color: #89ddff;&quot;&gt;(&lt;/span&gt;&lt;span style=&quot;color: #eeffff;font-style: italic;&quot;&gt;total&lt;/span&gt;&lt;span style=&quot;color: #89ddff;&quot;&gt;=&lt;/span&gt;&lt;span style=&quot;color: #82aaff;&quot;&gt;len&lt;/span&gt;&lt;span style=&quot;color: #89ddff;&quot;&gt;(&lt;/span&gt;&lt;span style=&quot;color: #82aaff;&quot;&gt;file_lines &lt;/span&gt;&lt;span style=&quot;color: #89ddff;&quot;&gt;*&lt;/span&gt;&lt;span style=&quot;color: #82aaff;&quot;&gt; &lt;/span&gt;&lt;span style=&quot;color: #f78c6c;&quot;&gt;2&lt;/span&gt;&lt;span style=&quot;color: #89ddff;&quot;&gt;),&lt;/span&gt;&lt;span style=&quot;color: #82aaff;&quot;&gt; &lt;/span&gt;&lt;span style=&quot;color: #eeffff;font-style: italic;&quot;&gt;desc&lt;/span&gt;&lt;span style=&quot;color: #89ddff;&quot;&gt;=&lt;/span&gt;&lt;span style=&quot;color: #89ddff;&quot;&gt;&quot;&lt;/span&gt;&lt;span style=&quot;color: #c3e88d;&quot;&gt;Procesando&lt;/span&gt;&lt;span style=&quot;color: #89ddff;&quot;&gt;&quot;&lt;/span&gt;&lt;span style=&quot;color: #89ddff;&quot;&gt;,&lt;/span&gt;&lt;span style=&quot;color: #82aaff;&quot;&gt; &lt;/span&gt;&lt;span style=&quot;color: #eeffff;font-style: italic;&quot;&gt;unit&lt;/span&gt;&lt;span style=&quot;color: #89ddff;&quot;&gt;=&lt;/span&gt;&lt;span style=&quot;color: #89ddff;&quot;&gt;&quot;&lt;/span&gt;&lt;span style=&quot;color: #c3e88d;&quot;&gt;línea&lt;/span&gt;&lt;span style=&quot;color: #89ddff;&quot;&gt;&quot;&lt;/span&gt;&lt;span style=&quot;color: #89ddff;&quot;&gt;,&lt;/span&gt;&lt;span style=&quot;color: #82aaff;&quot;&gt; &lt;/span&gt;&lt;span style=&quot;color: #eeffff;font-style: italic;&quot;&gt;colour&lt;/span&gt;&lt;span style=&quot;color: #89ddff;&quot;&gt;=&lt;/span&gt;&lt;span style=&quot;color: #89ddff;&quot;&gt;&#39;&lt;/span&gt;&lt;span style=&quot;color: #c3e88d;&quot;&gt;green&lt;/span&gt;&lt;span style=&quot;color: #89ddff;&quot;&gt;&#39;&lt;/span&gt;&lt;span style=&quot;color: #89ddff;&quot;&gt;)&lt;/span&gt;&lt;span style=&quot;color: #eeffff;&quot;&gt; &lt;/span&gt;&lt;span style=&quot;color: #89ddff;font-style: italic;&quot;&gt;as&lt;/span&gt;&lt;span style=&quot;color: #eeffff;&quot;&gt; progress_bar&lt;/span&gt;&lt;span style=&quot;color: #89ddff;&quot;&gt;:&lt;/span&gt;&lt;/div&gt;&lt;div&gt;&lt;span style=&quot;color: #eeffff;&quot;&gt;&amp;nbsp; &amp;nbsp; &amp;nbsp; &amp;nbsp; &amp;nbsp; &amp;nbsp; &amp;nbsp; &amp;nbsp; result_lines &lt;/span&gt;&lt;span style=&quot;color: #89ddff;&quot;&gt;=&lt;/span&gt;&lt;span style=&quot;color: #eeffff;&quot;&gt; &lt;/span&gt;&lt;span style=&quot;color: #89ddff;&quot;&gt;[]&lt;/span&gt;&lt;/div&gt;&lt;div&gt;&lt;span style=&quot;color: #eeffff;&quot;&gt;&amp;nbsp; &amp;nbsp; &amp;nbsp; &amp;nbsp; &amp;nbsp; &amp;nbsp; &amp;nbsp; &amp;nbsp; &lt;/span&gt;&lt;span style=&quot;color: #546e7a;font-style: italic;&quot;&gt;# Iterar a través de las URL y búsquedas en la configuración&lt;/span&gt;&lt;/div&gt;&lt;div&gt;&lt;span style=&quot;color: #eeffff;&quot;&gt;&amp;nbsp; &amp;nbsp; &amp;nbsp; &amp;nbsp; &amp;nbsp; &amp;nbsp; &amp;nbsp; &amp;nbsp; &lt;/span&gt;&lt;span style=&quot;color: #89ddff;font-style: italic;&quot;&gt;for&lt;/span&gt;&lt;span style=&quot;color: #eeffff;&quot;&gt; search &lt;/span&gt;&lt;span style=&quot;color: #89ddff;font-style: italic;&quot;&gt;in&lt;/span&gt;&lt;span style=&quot;color: #eeffff;&quot;&gt; self&lt;/span&gt;&lt;span style=&quot;color: #89ddff;&quot;&gt;.&lt;/span&gt;&lt;span style=&quot;color: #f07178;&quot;&gt;url&lt;/span&gt;&lt;span style=&quot;color: #89ddff;&quot;&gt;[&lt;/span&gt;&lt;span style=&quot;color: #f78c6c;&quot;&gt;1&lt;/span&gt;&lt;span style=&quot;color: #89ddff;&quot;&gt;][&lt;/span&gt;&lt;span style=&quot;color: #89ddff;&quot;&gt;&#39;&lt;/span&gt;&lt;span style=&quot;color: #c3e88d;&quot;&gt;url&lt;/span&gt;&lt;span style=&quot;color: #89ddff;&quot;&gt;&#39;&lt;/span&gt;&lt;span style=&quot;color: #89ddff;&quot;&gt;][&lt;/span&gt;&lt;span style=&quot;color: #eeffff;&quot;&gt;site&lt;/span&gt;&lt;span style=&quot;color: #89ddff;&quot;&gt;]:&lt;/span&gt;&lt;/div&gt;&lt;div&gt;&lt;span style=&quot;color: #eeffff;&quot;&gt;&amp;nbsp; &amp;nbsp; &amp;nbsp; &amp;nbsp; &amp;nbsp; &amp;nbsp; &amp;nbsp; &amp;nbsp; &amp;nbsp; &amp;nbsp; url &lt;/span&gt;&lt;span style=&quot;color: #89ddff;&quot;&gt;=&lt;/span&gt;&lt;span style=&quot;color: #eeffff;&quot;&gt; self&lt;/span&gt;&lt;span style=&quot;color: #89ddff;&quot;&gt;.&lt;/span&gt;&lt;span style=&quot;color: #f07178;&quot;&gt;url&lt;/span&gt;&lt;span style=&quot;color: #89ddff;&quot;&gt;[&lt;/span&gt;&lt;span style=&quot;color: #f78c6c;&quot;&gt;1&lt;/span&gt;&lt;span style=&quot;color: #89ddff;&quot;&gt;][&lt;/span&gt;&lt;span style=&quot;color: #89ddff;&quot;&gt;&#39;&lt;/span&gt;&lt;span style=&quot;color: #c3e88d;&quot;&gt;url&lt;/span&gt;&lt;span style=&quot;color: #89ddff;&quot;&gt;&#39;&lt;/span&gt;&lt;span style=&quot;color: #89ddff;&quot;&gt;][&lt;/span&gt;&lt;span style=&quot;color: #eeffff;&quot;&gt;site&lt;/span&gt;&lt;span style=&quot;color: #89ddff;&quot;&gt;][&lt;/span&gt;&lt;span style=&quot;color: #eeffff;&quot;&gt;search&lt;/span&gt;&lt;span style=&quot;color: #89ddff;&quot;&gt;]&lt;/span&gt;&lt;/div&gt;&lt;br&gt;&lt;div&gt;&lt;span style=&quot;color: #eeffff;&quot;&gt;&amp;nbsp; &amp;nbsp; &amp;nbsp; &amp;nbsp; &amp;nbsp; &amp;nbsp; &amp;nbsp; &amp;nbsp; &amp;nbsp; &amp;nbsp; &lt;/span&gt;&lt;span style=&quot;color: #546e7a;font-style: italic;&quot;&gt;# Iterar a través de las líneas del archivo de búsqueda&lt;/span&gt;&lt;/div&gt;&lt;div&gt;&lt;span style=&quot;color: #eeffff;&quot;&gt;&amp;nbsp; &amp;nbsp; &amp;nbsp; &amp;nbsp; &amp;nbsp; &amp;nbsp; &amp;nbsp; &amp;nbsp; &amp;nbsp; &amp;nbsp; &lt;/span&gt;&lt;span style=&quot;color: #89ddff;font-style: italic;&quot;&gt;for&lt;/span&gt;&lt;span style=&quot;color: #eeffff;&quot;&gt; line &lt;/span&gt;&lt;span style=&quot;color: #89ddff;font-style: italic;&quot;&gt;in&lt;/span&gt;&lt;span style=&quot;color: #eeffff;&quot;&gt; file_lines&lt;/span&gt;&lt;span style=&quot;color: #89ddff;&quot;&gt;:&lt;/span&gt;&lt;/div&gt;&lt;div&gt;&lt;span style=&quot;color: #eeffff;&quot;&gt;&amp;nbsp; &amp;nbsp; &amp;nbsp; &amp;nbsp; &amp;nbsp; &amp;nbsp; &amp;nbsp; &amp;nbsp; &amp;nbsp; &amp;nbsp; &amp;nbsp; &amp;nbsp; progress_bar&lt;/span&gt;&lt;span style=&quot;color: #89ddff;&quot;&gt;.&lt;/span&gt;&lt;span style=&quot;color: #82aaff;&quot;&gt;update&lt;/span&gt;&lt;span style=&quot;color: #89ddff;&quot;&gt;(&lt;/span&gt;&lt;span style=&quot;color: #f78c6c;&quot;&gt;1&lt;/span&gt;&lt;span style=&quot;color: #89ddff;&quot;&gt;)&lt;/span&gt;&lt;/div&gt;&lt;br&gt;&lt;div&gt;&lt;span style=&quot;color: #eeffff;&quot;&gt;&amp;nbsp; &amp;nbsp; &amp;nbsp; &amp;nbsp; &amp;nbsp; &amp;nbsp; &amp;nbsp; &amp;nbsp; &amp;nbsp; &amp;nbsp; &amp;nbsp; &amp;nbsp; &lt;/span&gt;&lt;span style=&quot;color: #546e7a;font-style: italic;&quot;&gt;# Comprobar si la URL está en la línea&lt;/span&gt;&lt;/div&gt;&lt;div&gt;&lt;span style=&quot;color: #eeffff;&quot;&gt;&amp;nbsp; &amp;nbsp; &amp;nbsp; &amp;nbsp; &amp;nbsp; &amp;nbsp; &amp;nbsp; &amp;nbsp; &amp;nbsp; &amp;nbsp; &amp;nbsp; &amp;nbsp; &lt;/span&gt;&lt;span style=&quot;color: #89ddff;font-style: italic;&quot;&gt;if&lt;/span&gt;&lt;span style=&quot;color: #eeffff;&quot;&gt; url &lt;/span&gt;&lt;span style=&quot;color: #89ddff;&quot;&gt;in&lt;/span&gt;&lt;span style=&quot;color: #eeffff;&quot;&gt; line &lt;/span&gt;&lt;span style=&quot;color: #89ddff;&quot;&gt;and&lt;/span&gt;&lt;span style=&quot;color: #eeffff;&quot;&gt; line &lt;/span&gt;&lt;span style=&quot;color: #89ddff;&quot;&gt;!=&lt;/span&gt;&lt;span style=&quot;color: #eeffff;&quot;&gt; &lt;/span&gt;&lt;span style=&quot;color: #89ddff;&quot;&gt;&#39;&lt;/span&gt;&lt;span style=&quot;color: #eeffff;&quot;&gt;\n&lt;/span&gt;&lt;span style=&quot;color: #89ddff;&quot;&gt;&#39;&lt;/span&gt;&lt;span style=&quot;color: #89ddff;&quot;&gt;:&lt;/span&gt;&lt;/div&gt;&lt;div&gt;&lt;span style=&quot;color: #eeffff;&quot;&gt;&amp;nbsp; &amp;nbsp; &amp;nbsp; &amp;nbsp; &amp;nbsp; &amp;nbsp; &amp;nbsp; &amp;nbsp; &amp;nbsp; &amp;nbsp; &amp;nbsp; &amp;nbsp; &amp;nbsp; &amp;nbsp; result &lt;/span&gt;&lt;span style=&quot;color: #89ddff;&quot;&gt;=&lt;/span&gt;&lt;span style=&quot;color: #eeffff;&quot;&gt; &lt;/span&gt;&lt;span style=&quot;color: #89ddff;&quot;&gt;&#39;&#39;&lt;/span&gt;&lt;/div&gt;&lt;div&gt;&lt;span style=&quot;color: #eeffff;&quot;&gt;&amp;nbsp; &amp;nbsp; &amp;nbsp; &amp;nbsp; &amp;nbsp; &amp;nbsp; &amp;nbsp; &amp;nbsp; &amp;nbsp; &amp;nbsp; &amp;nbsp; &amp;nbsp; &amp;nbsp; &amp;nbsp; &lt;/span&gt;&lt;span style=&quot;color: #89ddff;font-style: italic;&quot;&gt;try&lt;/span&gt;&lt;span style=&quot;color: #89ddff;&quot;&gt;:&lt;/span&gt;&lt;/div&gt;&lt;div&gt;&lt;span style=&quot;color: #eeffff;&quot;&gt;&amp;nbsp; &amp;nbsp; &amp;nbsp; &amp;nbsp; &amp;nbsp; &amp;nbsp; &amp;nbsp; &amp;nbsp; &amp;nbsp; &amp;nbsp; &amp;nbsp; &amp;nbsp; &amp;nbsp; &amp;nbsp; &amp;nbsp; &amp;nbsp; post_result &lt;/span&gt;&lt;span style=&quot;color: #89ddff;&quot;&gt;=&lt;/span&gt;&lt;span style=&quot;color: #eeffff;&quot;&gt; line&lt;/span&gt;&lt;span style=&quot;color: #89ddff;&quot;&gt;.&lt;/span&gt;&lt;span style=&quot;color: #82aaff;&quot;&gt;find&lt;/span&gt;&lt;span style=&quot;color: #89ddff;&quot;&gt;(&lt;/span&gt;&lt;span style=&quot;color: #89ddff;&quot;&gt;&#39;&lt;/span&gt;&lt;span style=&quot;color: #c3e88d;&quot;&gt;:&lt;/span&gt;&lt;span style=&quot;color: #89ddff;&quot;&gt;&#39;&lt;/span&gt;&lt;span style=&quot;color: #89ddff;&quot;&gt;,&lt;/span&gt;&lt;span style=&quot;color: #82aaff;&quot;&gt; line&lt;/span&gt;&lt;span style=&quot;color: #89ddff;&quot;&gt;.&lt;/span&gt;&lt;span style=&quot;color: #82aaff;&quot;&gt;find&lt;/span&gt;&lt;span style=&quot;color: #89ddff;&quot;&gt;(&lt;/span&gt;&lt;span style=&quot;color: #89ddff;&quot;&gt;&#39;&lt;/span&gt;&lt;span style=&quot;color: #c3e88d;&quot;&gt;:&lt;/span&gt;&lt;span style=&quot;color: #89ddff;&quot;&gt;&#39;&lt;/span&gt;&lt;span style=&quot;color: #89ddff;&quot;&gt;)&lt;/span&gt;&lt;span style=&quot;color: #82aaff;&quot;&gt; &lt;/span&gt;&lt;span style=&quot;color: #89ddff;&quot;&gt;+&lt;/span&gt;&lt;span style=&quot;color: #82aaff;&quot;&gt; &lt;/span&gt;&lt;span style=&quot;color: #f78c6c;&quot;&gt;1&lt;/span&gt;&lt;span style=&quot;color: #89ddff;&quot;&gt;)&lt;/span&gt;&lt;/div&gt;&lt;div&gt;&lt;span style=&quot;color: #eeffff;&quot;&gt;&amp;nbsp; &amp;nbsp; &amp;nbsp; &amp;nbsp; &amp;nbsp; &amp;nbsp; &amp;nbsp; &amp;nbsp; &amp;nbsp; &amp;nbsp; &amp;nbsp; &amp;nbsp; &amp;nbsp; &amp;nbsp; &amp;nbsp; &amp;nbsp; &lt;/span&gt;&lt;span style=&quot;color: #89ddff;font-style: italic;&quot;&gt;if&lt;/span&gt;&lt;span style=&quot;color: #eeffff;&quot;&gt; url &lt;/span&gt;&lt;span style=&quot;color: #89ddff;&quot;&gt;in&lt;/span&gt;&lt;span style=&quot;color: #eeffff;&quot;&gt; line&lt;/span&gt;&lt;span style=&quot;color: #89ddff;&quot;&gt;[:&lt;/span&gt;&lt;span style=&quot;color: #eeffff;&quot;&gt;post_result&lt;/span&gt;&lt;span style=&quot;color: #89ddff;&quot;&gt;]:&lt;/span&gt;&lt;/div&gt;&lt;div&gt;&lt;span style=&quot;color: #eeffff;&quot;&gt;&amp;nbsp; &amp;nbsp; &amp;nbsp; &amp;nbsp; &amp;nbsp; &amp;nbsp; &amp;nbsp; &amp;nbsp; &amp;nbsp; &amp;nbsp; &amp;nbsp; &amp;nbsp; &amp;nbsp; &amp;nbsp; &amp;nbsp; &amp;nbsp; &amp;nbsp; &amp;nbsp; &lt;/span&gt;&lt;span style=&quot;color: #89ddff;font-style: italic;&quot;&gt;try&lt;/span&gt;&lt;span style=&quot;color: #89ddff;&quot;&gt;:&lt;/span&gt;&lt;/div&gt;&lt;div&gt;&lt;span style=&quot;color: #eeffff;&quot;&gt;&amp;nbsp; &amp;nbsp; &amp;nbsp; &amp;nbsp; &amp;nbsp; &amp;nbsp; &amp;nbsp; &amp;nbsp; &amp;nbsp; &amp;nbsp; &amp;nbsp; &amp;nbsp; &amp;nbsp; &amp;nbsp; &amp;nbsp; &amp;nbsp; &amp;nbsp; &amp;nbsp; &amp;nbsp; &amp;nbsp; result &lt;/span&gt;&lt;span style=&quot;color: #89ddff;&quot;&gt;=&lt;/span&gt;&lt;span style=&quot;color: #eeffff;&quot;&gt; line&lt;/span&gt;&lt;span style=&quot;color: #89ddff;&quot;&gt;[&lt;/span&gt;&lt;span style=&quot;color: #eeffff;&quot;&gt;line&lt;/span&gt;&lt;span style=&quot;color: #89ddff;&quot;&gt;.&lt;/span&gt;&lt;span style=&quot;color: #82aaff;&quot;&gt;index&lt;/span&gt;&lt;span style=&quot;color: #89ddff;&quot;&gt;(&lt;/span&gt;&lt;span style=&quot;color: #89ddff;&quot;&gt;&#39;&lt;/span&gt;&lt;span style=&quot;color: #c3e88d;&quot;&gt; &lt;/span&gt;&lt;span style=&quot;color: #89ddff;&quot;&gt;&#39;&lt;/span&gt;&lt;span style=&quot;color: #89ddff;&quot;&gt;)&lt;/span&gt;&lt;span style=&quot;color: #eeffff;&quot;&gt; &lt;/span&gt;&lt;span style=&quot;color: #89ddff;&quot;&gt;+&lt;/span&gt;&lt;span style=&quot;color: #eeffff;&quot;&gt; &lt;/span&gt;&lt;span style=&quot;color: #f78c6c;&quot;&gt;1&lt;/span&gt;&lt;span style=&quot;color: #89ddff;&quot;&gt;:]&lt;/span&gt;&lt;/div&gt;&lt;div&gt;&lt;span style=&quot;color: #eeffff;&quot;&gt;&amp;nbsp; &amp;nbsp; &amp;nbsp; &amp;nbsp; &amp;nbsp; &amp;nbsp; &amp;nbsp; &amp;nbsp; &amp;nbsp; &amp;nbsp; &amp;nbsp; &amp;nbsp; &amp;nbsp; &amp;nbsp; &amp;nbsp; &amp;nbsp; &amp;nbsp; &amp;nbsp; &lt;/span&gt;&lt;span style=&quot;color: #89ddff;font-style: italic;&quot;&gt;except&lt;/span&gt;&lt;span style=&quot;color: #eeffff;&quot;&gt; &lt;/span&gt;&lt;span style=&quot;color: #ffcb6b;&quot;&gt;ValueError&lt;/span&gt;&lt;span style=&quot;color: #89ddff;&quot;&gt;:&lt;/span&gt;&lt;/div&gt;&lt;div&gt;&lt;span style=&quot;color: #eeffff;&quot;&gt;&amp;nbsp; &amp;nbsp; &amp;nbsp; &amp;nbsp; &amp;nbsp; &amp;nbsp; &amp;nbsp; &amp;nbsp; &amp;nbsp; &amp;nbsp; &amp;nbsp; &amp;nbsp; &amp;nbsp; &amp;nbsp; &amp;nbsp; &amp;nbsp; &amp;nbsp; &amp;nbsp; &amp;nbsp; &amp;nbsp; result &lt;/span&gt;&lt;span style=&quot;color: #89ddff;&quot;&gt;=&lt;/span&gt;&lt;span style=&quot;color: #eeffff;&quot;&gt; line&lt;/span&gt;&lt;span style=&quot;color: #89ddff;&quot;&gt;[&lt;/span&gt;&lt;span style=&quot;color: #eeffff;&quot;&gt;post_result &lt;/span&gt;&lt;span style=&quot;color: #89ddff;&quot;&gt;+&lt;/span&gt;&lt;span style=&quot;color: #eeffff;&quot;&gt; &lt;/span&gt;&lt;span style=&quot;color: #f78c6c;&quot;&gt;1&lt;/span&gt;&lt;span style=&quot;color: #89ddff;&quot;&gt;:]&lt;/span&gt;&lt;/div&gt;&lt;div&gt;&lt;span style=&quot;color: #eeffff;&quot;&gt;&amp;nbsp; &amp;nbsp; &amp;nbsp; &amp;nbsp; &amp;nbsp; &amp;nbsp; &amp;nbsp; &amp;nbsp; &amp;nbsp; &amp;nbsp; &amp;nbsp; &amp;nbsp; &amp;nbsp; &amp;nbsp; &lt;/span&gt;&lt;span style=&quot;color: #89ddff;font-style: italic;&quot;&gt;except&lt;/span&gt;&lt;span style=&quot;color: #eeffff;&quot;&gt; &lt;/span&gt;&lt;span style=&quot;color: #ffcb6b;&quot;&gt;ValueError&lt;/span&gt;&lt;span style=&quot;color: #89ddff;&quot;&gt;:&lt;/span&gt;&lt;/div&gt;&lt;div&gt;&lt;span style=&quot;color: #eeffff;&quot;&gt;&amp;nbsp; &amp;nbsp; &amp;nbsp; &amp;nbsp; &amp;nbsp; &amp;nbsp; &amp;nbsp; &amp;nbsp; &amp;nbsp; &amp;nbsp; &amp;nbsp; &amp;nbsp; &amp;nbsp; &amp;nbsp; &amp;nbsp; &amp;nbsp; &lt;/span&gt;&lt;span style=&quot;color: #89ddff;font-style: italic;&quot;&gt;try&lt;/span&gt;&lt;span style=&quot;color: #89ddff;&quot;&gt;:&lt;/span&gt;&lt;/div&gt;&lt;div&gt;&lt;span style=&quot;color: #eeffff;&quot;&gt;&amp;nbsp; &amp;nbsp; &amp;nbsp; &amp;nbsp; &amp;nbsp; &amp;nbsp; &amp;nbsp; &amp;nbsp; &amp;nbsp; &amp;nbsp; &amp;nbsp; &amp;nbsp; &amp;nbsp; &amp;nbsp; &amp;nbsp; &amp;nbsp; &amp;nbsp; &amp;nbsp; result &lt;/span&gt;&lt;span style=&quot;color: #89ddff;&quot;&gt;=&lt;/span&gt;&lt;span style=&quot;color: #eeffff;&quot;&gt; line&lt;/span&gt;&lt;span style=&quot;color: #89ddff;&quot;&gt;[&lt;/span&gt;&lt;span style=&quot;color: #eeffff;&quot;&gt;line&lt;/span&gt;&lt;span style=&quot;color: #89ddff;&quot;&gt;.&lt;/span&gt;&lt;span style=&quot;color: #82aaff;&quot;&gt;index&lt;/span&gt;&lt;span style=&quot;color: #89ddff;&quot;&gt;(&lt;/span&gt;&lt;span style=&quot;color: #89ddff;&quot;&gt;&#39;&lt;/span&gt;&lt;span style=&quot;color: #c3e88d;&quot;&gt; &lt;/span&gt;&lt;span style=&quot;color: #89ddff;&quot;&gt;&#39;&lt;/span&gt;&lt;span style=&quot;color: #89ddff;&quot;&gt;)&lt;/span&gt;&lt;span style=&quot;color: #eeffff;&quot;&gt; &lt;/span&gt;&lt;span style=&quot;color: #89ddff;&quot;&gt;+&lt;/span&gt;&lt;span style=&quot;color: #eeffff;&quot;&gt; &lt;/span&gt;&lt;span style=&quot;color: #f78c6c;&quot;&gt;1&lt;/span&gt;&lt;span style=&quot;color: #89ddff;&quot;&gt;:]&lt;/span&gt;&lt;/div&gt;&lt;div&gt;&lt;span style=&quot;color: #eeffff;&quot;&gt;&amp;nbsp; &amp;nbsp; &amp;nbsp; &amp;nbsp; &amp;nbsp; &amp;nbsp; &amp;nbsp; &amp;nbsp; &amp;nbsp; &amp;nbsp; &amp;nbsp; &amp;nbsp; &amp;nbsp; &amp;nbsp; &amp;nbsp; &amp;nbsp; &lt;/span&gt;&lt;span style=&quot;color: #89ddff;font-style: italic;&quot;&gt;except&lt;/span&gt;&lt;span style=&quot;color: #eeffff;&quot;&gt; &lt;/span&gt;&lt;span style=&quot;color: #ffcb6b;&quot;&gt;ValueError&lt;/span&gt;&lt;span style=&quot;color: #89ddff;&quot;&gt;:&lt;/span&gt;&lt;/div&gt;&lt;div&gt;&lt;span style=&quot;color: #eeffff;&quot;&gt;&amp;nbsp; &amp;nbsp; &amp;nbsp; &amp;nbsp; &amp;nbsp; &amp;nbsp; &amp;nbsp; &amp;nbsp; &amp;nbsp; &amp;nbsp; &amp;nbsp; &amp;nbsp; &amp;nbsp; &amp;nbsp; &amp;nbsp; &amp;nbsp; &amp;nbsp; &amp;nbsp; &lt;/span&gt;&lt;span style=&quot;color: #89ddff;font-style: italic;&quot;&gt;continue&lt;/span&gt;&lt;/div&gt;&lt;div&gt;&lt;span style=&quot;color: #eeffff;&quot;&gt;&amp;nbsp; &amp;nbsp; &amp;nbsp; &amp;nbsp; &amp;nbsp; &amp;nbsp; &amp;nbsp; &amp;nbsp; &amp;nbsp; &amp;nbsp; &amp;nbsp; &amp;nbsp; &amp;nbsp; &amp;nbsp; &lt;/span&gt;&lt;span style=&quot;color: #82aaff;&quot;&gt;print&lt;/span&gt;&lt;span style=&quot;color: #89ddff;&quot;&gt;(&lt;/span&gt;&lt;span style=&quot;color: #82aaff;&quot;&gt;line&lt;/span&gt;&lt;span style=&quot;color: #89ddff;&quot;&gt;)&lt;/span&gt;&lt;/div&gt;&lt;br&gt;&lt;div&gt;&lt;span style=&quot;color: #eeffff;&quot;&gt;&amp;nbsp; &amp;nbsp; &amp;nbsp; &amp;nbsp; &amp;nbsp; &amp;nbsp; &amp;nbsp; &amp;nbsp; &amp;nbsp; &amp;nbsp; &amp;nbsp; &amp;nbsp; &amp;nbsp; &amp;nbsp; &lt;/span&gt;&lt;span style=&quot;color: #546e7a;font-style: italic;&quot;&gt;# Comprobar si se encontró un resultado que no sea UNKNOWN de nombre y si resultado no esta en la lista con los resultado&lt;/span&gt;&lt;/div&gt;&lt;div&gt;&lt;span style=&quot;color: #eeffff;&quot;&gt;&amp;nbsp; &amp;nbsp; &amp;nbsp; &amp;nbsp; &amp;nbsp; &amp;nbsp; &amp;nbsp; &amp;nbsp; &amp;nbsp; &amp;nbsp; &amp;nbsp; &amp;nbsp; &amp;nbsp; &amp;nbsp; &lt;/span&gt;&lt;span style=&quot;color: #89ddff;font-style: italic;&quot;&gt;if&lt;/span&gt;&lt;span style=&quot;color: #eeffff;&quot;&gt; result &lt;/span&gt;&lt;span style=&quot;color: #89ddff;&quot;&gt;!=&lt;/span&gt;&lt;span style=&quot;color: #eeffff;&quot;&gt; &lt;/span&gt;&lt;span style=&quot;color: #89ddff;&quot;&gt;&#39;&#39;&lt;/span&gt;&lt;span style=&quot;color: #eeffff;&quot;&gt; &lt;/span&gt;&lt;span style=&quot;color: #89ddff;&quot;&gt;and&lt;/span&gt;&lt;span style=&quot;color: #eeffff;&quot;&gt; &lt;/span&gt;&lt;span style=&quot;color: #89ddff;&quot;&gt;not&lt;/span&gt;&lt;span style=&quot;color: #eeffff;&quot;&gt; &lt;/span&gt;&lt;span style=&quot;color: #89ddff;&quot;&gt;&#39;&lt;/span&gt;&lt;span style=&quot;color: #c3e88d;&quot;&gt;UNKNOWN&lt;/span&gt;&lt;span style=&quot;color: #89ddff;&quot;&gt;&#39;&lt;/span&gt;&lt;span style=&quot;color: #eeffff;&quot;&gt; &lt;/span&gt;&lt;span style=&quot;color: #89ddff;&quot;&gt;in&lt;/span&gt;&lt;span style=&quot;color: #eeffff;&quot;&gt; result &lt;/span&gt;&lt;span style=&quot;color: #89ddff;&quot;&gt;and&lt;/span&gt;&lt;span style=&quot;color: #eeffff;&quot;&gt; &lt;/span&gt;&lt;span style=&quot;color: #89ddff;&quot;&gt;not&lt;/span&gt;&lt;span style=&quot;color: #eeffff;&quot;&gt; result &lt;/span&gt;&lt;span style=&quot;color: #89ddff;&quot;&gt;in&lt;/span&gt;&lt;span style=&quot;color: #eeffff;&quot;&gt; result_lines &lt;/span&gt;&lt;span style=&quot;color: #89ddff;&quot;&gt;and&lt;/span&gt;&lt;span style=&quot;color: #eeffff;&quot;&gt; &lt;/span&gt;&lt;span style=&quot;color: #89ddff;&quot;&gt;not&lt;/span&gt;&lt;span style=&quot;color: #eeffff;&quot;&gt; result &lt;/span&gt;&lt;span style=&quot;color: #89ddff;&quot;&gt;in&lt;/span&gt;&lt;span style=&quot;color: #eeffff;&quot;&gt; result_lines&lt;/span&gt;&lt;span style=&quot;color: #89ddff;&quot;&gt;:&lt;/span&gt;&lt;/div&gt;&lt;div&gt;&lt;span style=&quot;color: #eeffff;&quot;&gt;&amp;nbsp; &amp;nbsp; &amp;nbsp; &amp;nbsp; &amp;nbsp; &amp;nbsp; &amp;nbsp; &amp;nbsp; &amp;nbsp; &amp;nbsp; &amp;nbsp; &amp;nbsp; &amp;nbsp; &amp;nbsp; &amp;nbsp; &amp;nbsp; &lt;/span&gt;&lt;span style=&quot;color: #89ddff;font-style: italic;&quot;&gt;if&lt;/span&gt;&lt;span style=&quot;color: #eeffff;&quot;&gt; &lt;/span&gt;&lt;span style=&quot;color: #89ddff;&quot;&gt;&#39;&lt;/span&gt;&lt;span style=&quot;color: #c3e88d;&quot;&gt;netflix&lt;/span&gt;&lt;span style=&quot;color: #89ddff;&quot;&gt;&#39;&lt;/span&gt;&lt;span style=&quot;color: #eeffff;&quot;&gt; &lt;/span&gt;&lt;span style=&quot;color: #89ddff;&quot;&gt;in&lt;/span&gt;&lt;span style=&quot;color: #eeffff;&quot;&gt; url &lt;/span&gt;&lt;span style=&quot;color: #89ddff;&quot;&gt;or&lt;/span&gt;&lt;span style=&quot;color: #eeffff;&quot;&gt; &lt;/span&gt;&lt;span style=&quot;color: #89ddff;&quot;&gt;&#39;&lt;/span&gt;&lt;span style=&quot;color: #c3e88d;&quot;&gt;netflix&lt;/span&gt;&lt;span style=&quot;color: #89ddff;&quot;&gt;&#39;&lt;/span&gt;&lt;span style=&quot;color: #eeffff;&quot;&gt; &lt;/span&gt;&lt;span style=&quot;color: #89ddff;&quot;&gt;in&lt;/span&gt;&lt;span style=&quot;color: #eeffff;&quot;&gt; url &lt;/span&gt;&lt;span style=&quot;color: #89ddff;&quot;&gt;or&lt;/span&gt;&lt;span style=&quot;color: #eeffff;&quot;&gt; &lt;/span&gt;&lt;span style=&quot;color: #89ddff;&quot;&gt;&#39;&lt;/span&gt;&lt;span style=&quot;color: #c3e88d;&quot;&gt;hbo&lt;/span&gt;&lt;span style=&quot;color: #89ddff;&quot;&gt;&#39;&lt;/span&gt;&lt;span style=&quot;color: #eeffff;&quot;&gt; &lt;/span&gt;&lt;span style=&quot;color: #89ddff;&quot;&gt;in&lt;/span&gt;&lt;span style=&quot;color: #eeffff;&quot;&gt; url &lt;/span&gt;&lt;span style=&quot;color: #89ddff;&quot;&gt;or&lt;/span&gt;&lt;span style=&quot;color: #eeffff;&quot;&gt; &lt;/span&gt;&lt;span style=&quot;color: #89ddff;&quot;&gt;&#39;&lt;/span&gt;&lt;span style=&quot;color: #c3e88d;&quot;&gt;starplus&lt;/span&gt;&lt;span style=&quot;color: #89ddff;&quot;&gt;&#39;&lt;/span&gt;&lt;span style=&quot;color: #eeffff;&quot;&gt; &lt;/span&gt;&lt;span style=&quot;color: #89ddff;&quot;&gt;in&lt;/span&gt;&lt;span style=&quot;color: #eeffff;&quot;&gt; url &lt;/span&gt;&lt;span style=&quot;color: #89ddff;&quot;&gt;or&lt;/span&gt;&lt;span style=&quot;color: #eeffff;&quot;&gt; &lt;/span&gt;&lt;span style=&quot;color: #89ddff;&quot;&gt;&#39;&lt;/span&gt;&lt;span style=&quot;color: #c3e88d;&quot;&gt;disney&lt;/span&gt;&lt;span style=&quot;color: #89ddff;&quot;&gt;&#39;&lt;/span&gt;&lt;span style=&quot;color: #eeffff;&quot;&gt; &lt;/span&gt;&lt;span style=&quot;color: #89ddff;&quot;&gt;in&lt;/span&gt;&lt;span style=&quot;color: #eeffff;&quot;&gt; url&lt;/span&gt;&lt;span style=&quot;color: #89ddff;&quot;&gt;:&lt;/span&gt;&lt;/div&gt;&lt;div&gt;&lt;span style=&quot;color: #eeffff;&quot;&gt;&amp;nbsp; &amp;nbsp; &amp;nbsp; &amp;nbsp; &amp;nbsp; &amp;nbsp; &amp;nbsp; &amp;nbsp; &amp;nbsp; &amp;nbsp; &amp;nbsp; &amp;nbsp; &amp;nbsp; &amp;nbsp; &amp;nbsp; &amp;nbsp; &amp;nbsp; &amp;nbsp; &lt;/span&gt;&lt;span style=&quot;color: #546e7a;font-style: italic;&quot;&gt;# Comprobar si el resultado contiene &#39;@&#39; o es un número&lt;/span&gt;&lt;/div&gt;&lt;div&gt;&lt;span style=&quot;color: #eeffff;&quot;&gt;&amp;nbsp; &amp;nbsp; &amp;nbsp; &amp;nbsp; &amp;nbsp; &amp;nbsp; &amp;nbsp; &amp;nbsp; &amp;nbsp; &amp;nbsp; &amp;nbsp; &amp;nbsp; &amp;nbsp; &amp;nbsp; &amp;nbsp; &amp;nbsp; &amp;nbsp; &amp;nbsp; &lt;/span&gt;&lt;span style=&quot;color: #89ddff;font-style: italic;&quot;&gt;try&lt;/span&gt;&lt;span style=&quot;color: #89ddff;&quot;&gt;:&lt;/span&gt;&lt;/div&gt;&lt;div&gt;&lt;span style=&quot;color: #eeffff;&quot;&gt;&amp;nbsp; &amp;nbsp; &amp;nbsp; &amp;nbsp; &amp;nbsp; &amp;nbsp; &amp;nbsp; &amp;nbsp; &amp;nbsp; &amp;nbsp; &amp;nbsp; &amp;nbsp; &amp;nbsp; &amp;nbsp; &amp;nbsp; &amp;nbsp; &amp;nbsp; &amp;nbsp; &amp;nbsp; &amp;nbsp; &lt;/span&gt;&lt;span style=&quot;color: #89ddff;font-style: italic;&quot;&gt;if&lt;/span&gt;&lt;span style=&quot;color: #eeffff;&quot;&gt; &lt;/span&gt;&lt;span style=&quot;color: #89ddff;&quot;&gt;not&lt;/span&gt;&lt;span style=&quot;color: #eeffff;&quot;&gt; &lt;/span&gt;&lt;span style=&quot;color: #89ddff;&quot;&gt;&#39;&lt;/span&gt;&lt;span style=&quot;color: #c3e88d;&quot;&gt;@&lt;/span&gt;&lt;span style=&quot;color: #89ddff;&quot;&gt;&#39;&lt;/span&gt;&lt;span style=&quot;color: #eeffff;&quot;&gt; &lt;/span&gt;&lt;span style=&quot;color: #89ddff;&quot;&gt;in&lt;/span&gt;&lt;span style=&quot;color: #eeffff;&quot;&gt; result&lt;/span&gt;&lt;span style=&quot;color: #89ddff;&quot;&gt;[:&lt;/span&gt;&lt;span style=&quot;color: #eeffff;&quot;&gt;result&lt;/span&gt;&lt;span style=&quot;color: #89ddff;&quot;&gt;.&lt;/span&gt;&lt;span style=&quot;color: #82aaff;&quot;&gt;find&lt;/span&gt;&lt;span style=&quot;color: #89ddff;&quot;&gt;(&lt;/span&gt;&lt;span style=&quot;color: #89ddff;&quot;&gt;&#39;&lt;/span&gt;&lt;span style=&quot;color: #c3e88d;&quot;&gt;:&lt;/span&gt;&lt;span style=&quot;color: #89ddff;&quot;&gt;&#39;&lt;/span&gt;&lt;span style=&quot;color: #89ddff;&quot;&gt;)]&lt;/span&gt;&lt;span style=&quot;color: #eeffff;&quot;&gt; &lt;/span&gt;&lt;span style=&quot;color: #89ddff;&quot;&gt;and&lt;/span&gt;&lt;span style=&quot;color: #eeffff;&quot;&gt; &lt;/span&gt;&lt;span style=&quot;color: #89ddff;&quot;&gt;not&lt;/span&gt;&lt;span style=&quot;color: #eeffff;&quot;&gt; result&lt;/span&gt;&lt;span style=&quot;color: #89ddff;&quot;&gt;[:&lt;/span&gt;&lt;span style=&quot;color: #eeffff;&quot;&gt;result&lt;/span&gt;&lt;span style=&quot;color: #89ddff;&quot;&gt;.&lt;/span&gt;&lt;span style=&quot;color: #82aaff;&quot;&gt;find&lt;/span&gt;&lt;span style=&quot;color: #89ddff;&quot;&gt;(&lt;/span&gt;&lt;span style=&quot;color: #89ddff;&quot;&gt;&#39;&lt;/span&gt;&lt;span style=&quot;color: #c3e88d;&quot;&gt;:&lt;/span&gt;&lt;span style=&quot;color: #89ddff;&quot;&gt;&#39;&lt;/span&gt;&lt;span style=&quot;color: #89ddff;&quot;&gt;)].&lt;/span&gt;&lt;span style=&quot;color: #82aaff;&quot;&gt;isdigit&lt;/span&gt;&lt;span style=&quot;color: #89ddff;&quot;&gt;():&lt;/span&gt;&lt;/div&gt;&lt;div&gt;&lt;span style=&quot;color: #eeffff;&quot;&gt;&amp;nbsp; &amp;nbsp; &amp;nbsp; &amp;nbsp; &amp;nbsp; &amp;nbsp; &amp;nbsp; &amp;nbsp; &amp;nbsp; &amp;nbsp; &amp;nbsp; &amp;nbsp; &amp;nbsp; &amp;nbsp; &amp;nbsp; &amp;nbsp; &amp;nbsp; &amp;nbsp; &amp;nbsp; &amp;nbsp; &amp;nbsp; &amp;nbsp; &lt;/span&gt;&lt;span style=&quot;color: #89ddff;font-style: italic;&quot;&gt;continue&lt;/span&gt;&lt;/div&gt;&lt;div&gt;&lt;span style=&quot;color: #eeffff;&quot;&gt;&amp;nbsp; &amp;nbsp; &amp;nbsp; &amp;nbsp; &amp;nbsp; &amp;nbsp; &amp;nbsp; &amp;nbsp; &amp;nbsp; &amp;nbsp; &amp;nbsp; &amp;nbsp; &amp;nbsp; &amp;nbsp; &amp;nbsp; &amp;nbsp; &amp;nbsp; &amp;nbsp; &amp;nbsp; &amp;nbsp; &lt;/span&gt;&lt;span style=&quot;color: #89ddff;font-style: italic;&quot;&gt;else&lt;/span&gt;&lt;span style=&quot;color: #89ddff;&quot;&gt;:&lt;/span&gt;&lt;/div&gt;&lt;div&gt;&lt;span style=&quot;color: #eeffff;&quot;&gt;&amp;nbsp; &amp;nbsp; &amp;nbsp; &amp;nbsp; &amp;nbsp; &amp;nbsp; &amp;nbsp; &amp;nbsp; &amp;nbsp; &amp;nbsp; &amp;nbsp; &amp;nbsp; &amp;nbsp; &amp;nbsp; &amp;nbsp; &amp;nbsp; &amp;nbsp; &amp;nbsp; &amp;nbsp; &amp;nbsp; &amp;nbsp; &amp;nbsp; result_lines&lt;/span&gt;&lt;span style=&quot;color: #89ddff;&quot;&gt;.&lt;/span&gt;&lt;span style=&quot;color: #82aaff;&quot;&gt;append&lt;/span&gt;&lt;span style=&quot;color: #89ddff;&quot;&gt;(&lt;/span&gt;&lt;span style=&quot;color: #82aaff;&quot;&gt;result&lt;/span&gt;&lt;span style=&quot;color: #89ddff;&quot;&gt;)&lt;/span&gt;&lt;/div&gt;&lt;div&gt;&lt;span style=&quot;color: #eeffff;&quot;&gt;&amp;nbsp; &amp;nbsp; &amp;nbsp; &amp;nbsp; &amp;nbsp; &amp;nbsp; &amp;nbsp; &amp;nbsp; &amp;nbsp; &amp;nbsp; &amp;nbsp; &amp;nbsp; &amp;nbsp; &amp;nbsp; &amp;nbsp; &amp;nbsp; &amp;nbsp; &amp;nbsp; &lt;/span&gt;&lt;span style=&quot;color: #89ddff;font-style: italic;&quot;&gt;except&lt;/span&gt;&lt;span style=&quot;color: #89ddff;&quot;&gt;:&lt;/span&gt;&lt;/div&gt;&lt;div&gt;&lt;span style=&quot;color: #eeffff;&quot;&gt;&amp;nbsp; &amp;nbsp; &amp;nbsp; &amp;nbsp; &amp;nbsp; &amp;nbsp; &amp;nbsp; &amp;nbsp; &amp;nbsp; &amp;nbsp; &amp;nbsp; &amp;nbsp; &amp;nbsp; &amp;nbsp; &amp;nbsp; &amp;nbsp; &amp;nbsp; &amp;nbsp; &amp;nbsp; &amp;nbsp; &lt;/span&gt;&lt;span style=&quot;color: #89ddff;font-style: italic;&quot;&gt;pass&lt;/span&gt;&lt;/div&gt;&lt;div&gt;&lt;span style=&quot;color: #eeffff;&quot;&gt;&amp;nbsp; &amp;nbsp; &amp;nbsp; &amp;nbsp; &amp;nbsp; &amp;nbsp; &amp;nbsp; &amp;nbsp; &amp;nbsp; &amp;nbsp; &amp;nbsp; &amp;nbsp; &amp;nbsp; &amp;nbsp; &amp;nbsp; &amp;nbsp; &lt;/span&gt;&lt;span style=&quot;color: #89ddff;font-style: italic;&quot;&gt;else&lt;/span&gt;&lt;span style=&quot;color: #89ddff;&quot;&gt;:&lt;/span&gt;&lt;/div&gt;&lt;br&gt;&lt;div&gt;&lt;span style=&quot;color: #eeffff;&quot;&gt;&amp;nbsp; &amp;nbsp; &amp;nbsp; &amp;nbsp; &amp;nbsp; &amp;nbsp; &amp;nbsp; &amp;nbsp; &amp;nbsp; &amp;nbsp; &amp;nbsp; &amp;nbsp; &amp;nbsp; &amp;nbsp; &amp;nbsp; &amp;nbsp; &amp;nbsp; &amp;nbsp; result_lines&lt;/span&gt;&lt;span style=&quot;color: #89ddff;&quot;&gt;.&lt;/span&gt;&lt;span style=&quot;color: #82aaff;&quot;&gt;append&lt;/span&gt;&lt;span style=&quot;color: #89ddff;&quot;&gt;(&lt;/span&gt;&lt;span style=&quot;color: #82aaff;&quot;&gt;result&lt;/span&gt;&lt;span style=&quot;color: #89ddff;&quot;&gt;)&lt;/span&gt;&lt;/div&gt;&lt;br&gt;&lt;div&gt;&lt;span style=&quot;color: #eeffff;&quot;&gt;&amp;nbsp; &amp;nbsp; &amp;nbsp; &amp;nbsp; &amp;nbsp; &amp;nbsp; &amp;nbsp; &amp;nbsp; &amp;nbsp; &amp;nbsp; &lt;/span&gt;&lt;span style=&quot;color: #546e7a;font-style: italic;&quot;&gt;# Escribir los resultados en un archivo&lt;/span&gt;&lt;/div&gt;&lt;div&gt;&lt;span style=&quot;color: #eeffff;&quot;&gt;&amp;nbsp; &amp;nbsp; &amp;nbsp; &amp;nbsp; &amp;nbsp; &amp;nbsp; &amp;nbsp; &amp;nbsp; &amp;nbsp; &amp;nbsp; &lt;/span&gt;&lt;span style=&quot;color: #89ddff;font-style: italic;&quot;&gt;with&lt;/span&gt;&lt;span style=&quot;color: #eeffff;&quot;&gt; &lt;/span&gt;&lt;span style=&quot;color: #82aaff;&quot;&gt;open&lt;/span&gt;&lt;span style=&quot;color: #89ddff;&quot;&gt;(&lt;/span&gt;&lt;span style=&quot;color: #c792ea;&quot;&gt;f&lt;/span&gt;&lt;span style=&quot;color: #c3e88d;&quot;&gt;&#39;&lt;/span&gt;&lt;span style=&quot;color: #f78c6c;&quot;&gt;{&lt;/span&gt;&lt;span style=&quot;color: #82aaff;&quot;&gt;result_path&lt;/span&gt;&lt;span style=&quot;color: #f78c6c;&quot;&gt;}&lt;/span&gt;&lt;span style=&quot;color: #c3e88d;&quot;&gt;result_&lt;/span&gt;&lt;span style=&quot;color: #f78c6c;&quot;&gt;{&lt;/span&gt;&lt;span style=&quot;color: #82aaff;&quot;&gt;site&lt;/span&gt;&lt;span style=&quot;color: #f78c6c;&quot;&gt;}&lt;/span&gt;&lt;span style=&quot;color: #c3e88d;&quot;&gt;.txt&#39;&lt;/span&gt;&lt;span style=&quot;color: #89ddff;&quot;&gt;,&lt;/span&gt;&lt;span style=&quot;color: #82aaff;&quot;&gt; &lt;/span&gt;&lt;span style=&quot;color: #89ddff;&quot;&gt;&#39;&lt;/span&gt;&lt;span style=&quot;color: #c3e88d;&quot;&gt;a&lt;/span&gt;&lt;span style=&quot;color: #89ddff;&quot;&gt;&#39;&lt;/span&gt;&lt;span style=&quot;color: #89ddff;&quot;&gt;,)&lt;/span&gt;&lt;span style=&quot;color: #eeffff;&quot;&gt; &lt;/span&gt;&lt;span style=&quot;color: #89ddff;font-style: italic;&quot;&gt;as&lt;/span&gt;&lt;span style=&quot;color: #eeffff;&quot;&gt; file_&lt;/span&gt;&lt;span style=&quot;color: #89ddff;&quot;&gt;:&lt;/span&gt;&lt;/div&gt;&lt;div&gt;&lt;span style=&quot;color: #eeffff;&quot;&gt;&amp;nbsp; &amp;nbsp; &amp;nbsp; &amp;nbsp; &amp;nbsp; &amp;nbsp; &amp;nbsp; &amp;nbsp; &amp;nbsp; &amp;nbsp; &amp;nbsp; &amp;nbsp; &lt;/span&gt;&lt;span style=&quot;color: #89ddff;font-style: italic;&quot;&gt;for&lt;/span&gt;&lt;span style=&quot;color: #eeffff;&quot;&gt; line &lt;/span&gt;&lt;span style=&quot;color: #89ddff;font-style: italic;&quot;&gt;in&lt;/span&gt;&lt;span style=&quot;color: #eeffff;&quot;&gt; result_lines&lt;/span&gt;&lt;span style=&quot;color: #89ddff;&quot;&gt;:&lt;/span&gt;&lt;/div&gt;&lt;div&gt;&lt;span style=&quot;color: #eeffff;&quot;&gt;&amp;nbsp; &amp;nbsp; &amp;nbsp; &amp;nbsp; &amp;nbsp; &amp;nbsp; &amp;nbsp; &amp;nbsp; &amp;nbsp; &amp;nbsp; &amp;nbsp; &amp;nbsp; &amp;nbsp; &amp;nbsp; &lt;/span&gt;&lt;span style=&quot;color: #89ddff;font-style: italic;&quot;&gt;try&lt;/span&gt;&lt;span style=&quot;color: #89ddff;&quot;&gt;:&lt;/span&gt;&lt;/div&gt;&lt;div&gt;&lt;span style=&quot;color: #eeffff;&quot;&gt;&amp;nbsp; &amp;nbsp; &amp;nbsp; &amp;nbsp; &amp;nbsp; &amp;nbsp; &amp;nbsp; &amp;nbsp; &amp;nbsp; &amp;nbsp; &amp;nbsp; &amp;nbsp; &amp;nbsp; &amp;nbsp; &amp;nbsp; &amp;nbsp; file_&lt;/span&gt;&lt;span style=&quot;color: #89ddff;&quot;&gt;.&lt;/span&gt;&lt;span style=&quot;color: #82aaff;&quot;&gt;write&lt;/span&gt;&lt;span style=&quot;color: #89ddff;&quot;&gt;(&lt;/span&gt;&lt;span style=&quot;color: #82aaff;&quot;&gt;line&lt;/span&gt;&lt;span style=&quot;color: #89ddff;&quot;&gt;)&lt;/span&gt;&lt;/div&gt;&lt;div&gt;&lt;span style=&quot;color: #eeffff;&quot;&gt;&amp;nbsp; &amp;nbsp; &amp;nbsp; &amp;nbsp; &amp;nbsp; &amp;nbsp; &amp;nbsp; &amp;nbsp; &amp;nbsp; &amp;nbsp; &amp;nbsp; &amp;nbsp; &amp;nbsp; &amp;nbsp; &lt;/span&gt;&lt;span style=&quot;color: #89ddff;font-style: italic;&quot;&gt;except&lt;/span&gt;&lt;span style=&quot;color: #89ddff;&quot;&gt;:&lt;/span&gt;&lt;/div&gt;&lt;div&gt;&lt;span style=&quot;color: #eeffff;&quot;&gt;&amp;nbsp; &amp;nbsp; &amp;nbsp; &amp;nbsp; &amp;nbsp; &amp;nbsp; &amp;nbsp; &amp;nbsp; &amp;nbsp; &amp;nbsp; &amp;nbsp; &amp;nbsp; &amp;nbsp; &amp;nbsp; &amp;nbsp; &amp;nbsp; &lt;/span&gt;&lt;span style=&quot;color: #89ddff;font-style: italic;&quot;&gt;pass&lt;/span&gt;&lt;/div&gt;&lt;/div&gt;" style="text;whiteSpace=wrap;html=1;" parent="WIyWlLk6GJQsqaUBKTNV-1" vertex="1">
          <mxGeometry x="540" y="-540" width="1250" as="geometry" />
        </mxCell>
        <mxCell id="QHBeRQjLNkS0FuJw2o_--6" value="&lt;div style=&quot;color: rgb(238, 255, 255); background-color: rgb(38, 50, 56); font-family: Consolas, &amp;quot;Courier New&amp;quot;, monospace; font-weight: normal; font-size: 14px; line-height: 19px;&quot;&gt;&lt;div&gt;&lt;span style=&quot;color: #89ddff;&quot;&gt;[&lt;/span&gt;&lt;/div&gt;&lt;div&gt;&lt;span style=&quot;color: #eeffff;&quot;&gt;&amp;nbsp; &amp;nbsp; &lt;/span&gt;&lt;span style=&quot;color: #89ddff;&quot;&gt;{&lt;/span&gt;&lt;/div&gt;&lt;div&gt;&lt;span style=&quot;color: #eeffff;&quot;&gt;&amp;nbsp; &amp;nbsp; &amp;nbsp; &amp;nbsp; &lt;/span&gt;&lt;span style=&quot;color: #89ddff;&quot;&gt;&quot;&lt;/span&gt;&lt;span style=&quot;color: #c792ea;&quot;&gt;textFile&lt;/span&gt;&lt;span style=&quot;color: #89ddff;&quot;&gt;&quot;&lt;/span&gt;&lt;span style=&quot;color: #89ddff;&quot;&gt;:&lt;/span&gt;&lt;span style=&quot;color: #eeffff;&quot;&gt; &lt;/span&gt;&lt;span style=&quot;color: #89ddff;&quot;&gt;{&lt;/span&gt;&lt;/div&gt;&lt;div&gt;&lt;span style=&quot;color: #eeffff;&quot;&gt;&amp;nbsp; &amp;nbsp; &amp;nbsp; &amp;nbsp; &amp;nbsp; &amp;nbsp; &lt;/span&gt;&lt;span style=&quot;color: #89ddff;&quot;&gt;&quot;&lt;/span&gt;&lt;span style=&quot;color: #ffcb6b;&quot;&gt;textSearch&lt;/span&gt;&lt;span style=&quot;color: #89ddff;&quot;&gt;&quot;&lt;/span&gt;&lt;span style=&quot;color: #89ddff;&quot;&gt;:&lt;/span&gt;&lt;span style=&quot;color: #89ddff;&quot;&gt;&quot;&lt;/span&gt;&lt;span style=&quot;color: #c3e88d;&quot;&gt;extractor/etc/data/raw_data/text.txt&lt;/span&gt;&lt;span style=&quot;color: #89ddff;&quot;&gt;&quot;&lt;/span&gt;&lt;span style=&quot;color: #89ddff;&quot;&gt;,&lt;/span&gt;&lt;/div&gt;&lt;div&gt;&lt;span style=&quot;color: #eeffff;&quot;&gt;&amp;nbsp; &amp;nbsp; &amp;nbsp; &amp;nbsp; &amp;nbsp; &amp;nbsp; &lt;/span&gt;&lt;span style=&quot;color: #89ddff;&quot;&gt;&quot;&lt;/span&gt;&lt;span style=&quot;color: #ffcb6b;&quot;&gt;textResult&lt;/span&gt;&lt;span style=&quot;color: #89ddff;&quot;&gt;&quot;&lt;/span&gt;&lt;span style=&quot;color: #89ddff;&quot;&gt;:&lt;/span&gt;&lt;span style=&quot;color: #89ddff;&quot;&gt;&quot;&lt;/span&gt;&lt;span style=&quot;color: #c3e88d;&quot;&gt;extractor/etc/data/processed_data/result.txt&lt;/span&gt;&lt;span style=&quot;color: #89ddff;&quot;&gt;&quot;&lt;/span&gt;&lt;/div&gt;&lt;div&gt;&lt;span style=&quot;color: #eeffff;&quot;&gt;&amp;nbsp; &amp;nbsp; &amp;nbsp; &amp;nbsp; &lt;/span&gt;&lt;span style=&quot;color: #89ddff;&quot;&gt;}&lt;/span&gt;&lt;/div&gt;&lt;div&gt;&lt;span style=&quot;color: #eeffff;&quot;&gt;&amp;nbsp; &amp;nbsp; &lt;/span&gt;&lt;span style=&quot;color: #89ddff;&quot;&gt;},&lt;/span&gt;&lt;/div&gt;&lt;div&gt;&lt;span style=&quot;color: #eeffff;&quot;&gt;&amp;nbsp; &amp;nbsp; &lt;/span&gt;&lt;span style=&quot;color: #89ddff;&quot;&gt;{&lt;/span&gt;&lt;/div&gt;&lt;div&gt;&lt;span style=&quot;color: #eeffff;&quot;&gt;&amp;nbsp; &amp;nbsp; &amp;nbsp; &amp;nbsp; &lt;/span&gt;&lt;span style=&quot;color: #89ddff;&quot;&gt;&quot;&lt;/span&gt;&lt;span style=&quot;color: #c792ea;&quot;&gt;url&lt;/span&gt;&lt;span style=&quot;color: #89ddff;&quot;&gt;&quot;&lt;/span&gt;&lt;span style=&quot;color: #89ddff;&quot;&gt;:&lt;/span&gt;&lt;span style=&quot;color: #eeffff;&quot;&gt; &lt;/span&gt;&lt;span style=&quot;color: #89ddff;&quot;&gt;{&lt;/span&gt;&lt;/div&gt;&lt;div&gt;&lt;span style=&quot;color: #eeffff;&quot;&gt;&amp;nbsp; &amp;nbsp; &amp;nbsp; &amp;nbsp; &amp;nbsp; &amp;nbsp; &lt;/span&gt;&lt;span style=&quot;color: #89ddff;&quot;&gt;&quot;&lt;/span&gt;&lt;span style=&quot;color: #ffcb6b;&quot;&gt;starPlus&lt;/span&gt;&lt;span style=&quot;color: #89ddff;&quot;&gt;&quot;&lt;/span&gt;&lt;span style=&quot;color: #89ddff;&quot;&gt;:&lt;/span&gt;&lt;span style=&quot;color: #eeffff;&quot;&gt; &lt;/span&gt;&lt;span style=&quot;color: #89ddff;&quot;&gt;{&lt;/span&gt;&lt;/div&gt;&lt;div&gt;&lt;span style=&quot;color: #eeffff;&quot;&gt;&amp;nbsp; &amp;nbsp; &amp;nbsp; &amp;nbsp; &amp;nbsp; &amp;nbsp; &amp;nbsp; &amp;nbsp; &lt;/span&gt;&lt;span style=&quot;color: #89ddff;&quot;&gt;&quot;&lt;/span&gt;&lt;span style=&quot;color: #f78c6c;&quot;&gt;web&lt;/span&gt;&lt;span style=&quot;color: #89ddff;&quot;&gt;&quot;&lt;/span&gt;&lt;span style=&quot;color: #89ddff;&quot;&gt;:&lt;/span&gt;&lt;span style=&quot;color: #89ddff;&quot;&gt;&quot;&lt;/span&gt;&lt;span style=&quot;color: #c3e88d;&quot;&gt;www.starplus.com&lt;/span&gt;&lt;span style=&quot;color: #89ddff;&quot;&gt;&quot;&lt;/span&gt;&lt;span style=&quot;color: #89ddff;&quot;&gt;,&lt;/span&gt;&lt;/div&gt;&lt;div&gt;&lt;span style=&quot;color: #eeffff;&quot;&gt;&amp;nbsp; &amp;nbsp; &amp;nbsp; &amp;nbsp; &amp;nbsp; &amp;nbsp; &amp;nbsp; &amp;nbsp; &lt;/span&gt;&lt;span style=&quot;color: #89ddff;&quot;&gt;&quot;&lt;/span&gt;&lt;span style=&quot;color: #f78c6c;&quot;&gt;andorid&lt;/span&gt;&lt;span style=&quot;color: #89ddff;&quot;&gt;&quot;&lt;/span&gt;&lt;span style=&quot;color: #89ddff;&quot;&gt;:&lt;/span&gt;&lt;span style=&quot;color: #89ddff;&quot;&gt;&quot;&lt;/span&gt;&lt;span style=&quot;color: #c3e88d;&quot;&gt;com.disney.starplus&lt;/span&gt;&lt;span style=&quot;color: #89ddff;&quot;&gt;&quot;&lt;/span&gt;&lt;/div&gt;&lt;div&gt;&lt;span style=&quot;color: #eeffff;&quot;&gt;&amp;nbsp; &amp;nbsp; &amp;nbsp; &amp;nbsp; &amp;nbsp; &amp;nbsp; &lt;/span&gt;&lt;span style=&quot;color: #89ddff;&quot;&gt;},&lt;/span&gt;&lt;/div&gt;&lt;div&gt;&lt;span style=&quot;color: #eeffff;&quot;&gt;&amp;nbsp; &amp;nbsp; &amp;nbsp; &amp;nbsp; &amp;nbsp; &amp;nbsp; &lt;/span&gt;&lt;span style=&quot;color: #89ddff;&quot;&gt;&quot;&lt;/span&gt;&lt;span style=&quot;color: #ffcb6b;&quot;&gt;disney&lt;/span&gt;&lt;span style=&quot;color: #89ddff;&quot;&gt;&quot;&lt;/span&gt;&lt;span style=&quot;color: #89ddff;&quot;&gt;:&lt;/span&gt;&lt;span style=&quot;color: #eeffff;&quot;&gt; &lt;/span&gt;&lt;span style=&quot;color: #89ddff;&quot;&gt;{&lt;/span&gt;&lt;/div&gt;&lt;div&gt;&lt;span style=&quot;color: #eeffff;&quot;&gt;&amp;nbsp; &amp;nbsp; &amp;nbsp; &amp;nbsp; &amp;nbsp; &amp;nbsp; &amp;nbsp; &amp;nbsp; &lt;/span&gt;&lt;span style=&quot;color: #89ddff;&quot;&gt;&quot;&lt;/span&gt;&lt;span style=&quot;color: #f78c6c;&quot;&gt;web&lt;/span&gt;&lt;span style=&quot;color: #89ddff;&quot;&gt;&quot;&lt;/span&gt;&lt;span style=&quot;color: #89ddff;&quot;&gt;:&lt;/span&gt;&lt;span style=&quot;color: #89ddff;&quot;&gt;&quot;&lt;/span&gt;&lt;span style=&quot;color: #c3e88d;&quot;&gt;disneyplus.com&lt;/span&gt;&lt;span style=&quot;color: #89ddff;&quot;&gt;&quot;&lt;/span&gt;&lt;span style=&quot;color: #89ddff;&quot;&gt;,&lt;/span&gt;&lt;/div&gt;&lt;div&gt;&lt;span style=&quot;color: #eeffff;&quot;&gt;&amp;nbsp; &amp;nbsp; &amp;nbsp; &amp;nbsp; &amp;nbsp; &amp;nbsp; &amp;nbsp; &amp;nbsp; &lt;/span&gt;&lt;span style=&quot;color: #89ddff;&quot;&gt;&quot;&lt;/span&gt;&lt;span style=&quot;color: #f78c6c;&quot;&gt;android&lt;/span&gt;&lt;span style=&quot;color: #89ddff;&quot;&gt;&quot;&lt;/span&gt;&lt;span style=&quot;color: #89ddff;&quot;&gt;:&lt;/span&gt;&lt;span style=&quot;color: #89ddff;&quot;&gt;&quot;&lt;/span&gt;&lt;span style=&quot;color: #c3e88d;&quot;&gt;com.disney.disneyplus&lt;/span&gt;&lt;span style=&quot;color: #89ddff;&quot;&gt;&quot;&lt;/span&gt;&lt;/div&gt;&lt;div&gt;&lt;span style=&quot;color: #eeffff;&quot;&gt;&amp;nbsp; &amp;nbsp; &amp;nbsp; &amp;nbsp; &amp;nbsp; &amp;nbsp; &lt;/span&gt;&lt;span style=&quot;color: #89ddff;&quot;&gt;},&lt;/span&gt;&lt;/div&gt;&lt;div&gt;&lt;span style=&quot;color: #eeffff;&quot;&gt;&amp;nbsp; &amp;nbsp; &amp;nbsp; &amp;nbsp; &amp;nbsp; &amp;nbsp; &lt;/span&gt;&lt;span style=&quot;color: #89ddff;&quot;&gt;&quot;&lt;/span&gt;&lt;span style=&quot;color: #ffcb6b;&quot;&gt;tradingView&lt;/span&gt;&lt;span style=&quot;color: #89ddff;&quot;&gt;&quot;&lt;/span&gt;&lt;span style=&quot;color: #89ddff;&quot;&gt;:&lt;/span&gt;&lt;span style=&quot;color: #eeffff;&quot;&gt; &lt;/span&gt;&lt;span style=&quot;color: #89ddff;&quot;&gt;{&lt;/span&gt;&lt;/div&gt;&lt;div&gt;&lt;span style=&quot;color: #eeffff;&quot;&gt;&amp;nbsp; &amp;nbsp; &amp;nbsp; &amp;nbsp; &amp;nbsp; &amp;nbsp; &amp;nbsp; &amp;nbsp; &lt;/span&gt;&lt;span style=&quot;color: #89ddff;&quot;&gt;&quot;&lt;/span&gt;&lt;span style=&quot;color: #f78c6c;&quot;&gt;web&lt;/span&gt;&lt;span style=&quot;color: #89ddff;&quot;&gt;&quot;&lt;/span&gt;&lt;span style=&quot;color: #89ddff;&quot;&gt;:&lt;/span&gt;&lt;span style=&quot;color: #89ddff;&quot;&gt;&quot;&lt;/span&gt;&lt;span style=&quot;color: #c3e88d;&quot;&gt;tradingview.com&lt;/span&gt;&lt;span style=&quot;color: #89ddff;&quot;&gt;&quot;&lt;/span&gt;&lt;span style=&quot;color: #89ddff;&quot;&gt;,&lt;/span&gt;&lt;/div&gt;&lt;div&gt;&lt;span style=&quot;color: #eeffff;&quot;&gt;&amp;nbsp; &amp;nbsp; &amp;nbsp; &amp;nbsp; &amp;nbsp; &amp;nbsp; &amp;nbsp; &amp;nbsp; &lt;/span&gt;&lt;span style=&quot;color: #89ddff;&quot;&gt;&quot;&lt;/span&gt;&lt;span style=&quot;color: #f78c6c;&quot;&gt;android&lt;/span&gt;&lt;span style=&quot;color: #89ddff;&quot;&gt;&quot;&lt;/span&gt;&lt;span style=&quot;color: #89ddff;&quot;&gt;:&lt;/span&gt;&lt;span style=&quot;color: #89ddff;&quot;&gt;&quot;&lt;/span&gt;&lt;span style=&quot;color: #c3e88d;&quot;&gt;tradingview.tradingviewapp&lt;/span&gt;&lt;span style=&quot;color: #89ddff;&quot;&gt;&quot;&lt;/span&gt;&lt;/div&gt;&lt;div&gt;&lt;span style=&quot;color: #eeffff;&quot;&gt;&amp;nbsp; &amp;nbsp; &amp;nbsp; &amp;nbsp; &amp;nbsp; &amp;nbsp; &lt;/span&gt;&lt;span style=&quot;color: #89ddff;&quot;&gt;},&lt;/span&gt;&lt;/div&gt;&lt;div&gt;&lt;span style=&quot;color: #eeffff;&quot;&gt;&amp;nbsp; &amp;nbsp; &amp;nbsp; &amp;nbsp; &amp;nbsp; &amp;nbsp; &lt;/span&gt;&lt;span style=&quot;color: #89ddff;&quot;&gt;&quot;&lt;/span&gt;&lt;span style=&quot;color: #ffcb6b;&quot;&gt;netflix&lt;/span&gt;&lt;span style=&quot;color: #89ddff;&quot;&gt;&quot;&lt;/span&gt;&lt;span style=&quot;color: #89ddff;&quot;&gt;:&lt;/span&gt;&lt;span style=&quot;color: #eeffff;&quot;&gt; &lt;/span&gt;&lt;span style=&quot;color: #89ddff;&quot;&gt;{&lt;/span&gt;&lt;/div&gt;&lt;div&gt;&lt;span style=&quot;color: #eeffff;&quot;&gt;&amp;nbsp; &amp;nbsp; &amp;nbsp; &amp;nbsp; &amp;nbsp; &amp;nbsp; &amp;nbsp; &amp;nbsp; &lt;/span&gt;&lt;span style=&quot;color: #89ddff;&quot;&gt;&quot;&lt;/span&gt;&lt;span style=&quot;color: #f78c6c;&quot;&gt;web&lt;/span&gt;&lt;span style=&quot;color: #89ddff;&quot;&gt;&quot;&lt;/span&gt;&lt;span style=&quot;color: #89ddff;&quot;&gt;:&lt;/span&gt;&lt;span style=&quot;color: #89ddff;&quot;&gt;&quot;&lt;/span&gt;&lt;span style=&quot;color: #c3e88d;&quot;&gt;netflix.com&lt;/span&gt;&lt;span style=&quot;color: #89ddff;&quot;&gt;&quot;&lt;/span&gt;&lt;span style=&quot;color: #89ddff;&quot;&gt;,&lt;/span&gt;&lt;/div&gt;&lt;div&gt;&lt;span style=&quot;color: #eeffff;&quot;&gt;&amp;nbsp; &amp;nbsp; &amp;nbsp; &amp;nbsp; &amp;nbsp; &amp;nbsp; &amp;nbsp; &amp;nbsp; &lt;/span&gt;&lt;span style=&quot;color: #89ddff;&quot;&gt;&quot;&lt;/span&gt;&lt;span style=&quot;color: #f78c6c;&quot;&gt;android&lt;/span&gt;&lt;span style=&quot;color: #89ddff;&quot;&gt;&quot;&lt;/span&gt;&lt;span style=&quot;color: #89ddff;&quot;&gt;:&lt;/span&gt;&lt;span style=&quot;color: #89ddff;&quot;&gt;&quot;&lt;/span&gt;&lt;span style=&quot;color: #c3e88d;&quot;&gt;com.netflix.mediaclient&lt;/span&gt;&lt;span style=&quot;color: #89ddff;&quot;&gt;&quot;&lt;/span&gt;&lt;/div&gt;&lt;div&gt;&lt;span style=&quot;color: #eeffff;&quot;&gt;&amp;nbsp; &amp;nbsp; &amp;nbsp; &amp;nbsp; &amp;nbsp; &amp;nbsp; &lt;/span&gt;&lt;span style=&quot;color: #89ddff;&quot;&gt;},&lt;/span&gt;&lt;/div&gt;&lt;div&gt;&lt;span style=&quot;color: #eeffff;&quot;&gt;&amp;nbsp; &amp;nbsp; &amp;nbsp; &amp;nbsp; &amp;nbsp; &amp;nbsp; &lt;/span&gt;&lt;span style=&quot;color: #89ddff;&quot;&gt;&quot;&lt;/span&gt;&lt;span style=&quot;color: #ffcb6b;&quot;&gt;hbo&lt;/span&gt;&lt;span style=&quot;color: #89ddff;&quot;&gt;&quot;&lt;/span&gt;&lt;span style=&quot;color: #89ddff;&quot;&gt;:&lt;/span&gt;&lt;span style=&quot;color: #eeffff;&quot;&gt; &lt;/span&gt;&lt;span style=&quot;color: #89ddff;&quot;&gt;{&lt;/span&gt;&lt;/div&gt;&lt;div&gt;&lt;span style=&quot;color: #eeffff;&quot;&gt;&amp;nbsp; &amp;nbsp; &amp;nbsp; &amp;nbsp; &amp;nbsp; &amp;nbsp; &amp;nbsp; &amp;nbsp; &lt;/span&gt;&lt;span style=&quot;color: #89ddff;&quot;&gt;&quot;&lt;/span&gt;&lt;span style=&quot;color: #f78c6c;&quot;&gt;web&lt;/span&gt;&lt;span style=&quot;color: #89ddff;&quot;&gt;&quot;&lt;/span&gt;&lt;span style=&quot;color: #89ddff;&quot;&gt;:&lt;/span&gt;&lt;span style=&quot;color: #89ddff;&quot;&gt;&quot;&lt;/span&gt;&lt;span style=&quot;color: #c3e88d;&quot;&gt;play.hbomax.com&lt;/span&gt;&lt;span style=&quot;color: #89ddff;&quot;&gt;&quot;&lt;/span&gt;&lt;span style=&quot;color: #89ddff;&quot;&gt;,&lt;/span&gt;&lt;/div&gt;&lt;div&gt;&lt;span style=&quot;color: #eeffff;&quot;&gt;&amp;nbsp; &amp;nbsp; &amp;nbsp; &amp;nbsp; &amp;nbsp; &amp;nbsp; &amp;nbsp; &amp;nbsp; &lt;/span&gt;&lt;span style=&quot;color: #89ddff;&quot;&gt;&quot;&lt;/span&gt;&lt;span style=&quot;color: #f78c6c;&quot;&gt;android&lt;/span&gt;&lt;span style=&quot;color: #89ddff;&quot;&gt;&quot;&lt;/span&gt;&lt;span style=&quot;color: #89ddff;&quot;&gt;:&lt;/span&gt;&lt;span style=&quot;color: #89ddff;&quot;&gt;&quot;&lt;/span&gt;&lt;span style=&quot;color: #c3e88d;&quot;&gt;com.hbo.android.app&lt;/span&gt;&lt;span style=&quot;color: #89ddff;&quot;&gt;&quot;&lt;/span&gt;&lt;/div&gt;&lt;div&gt;&lt;span style=&quot;color: #eeffff;&quot;&gt;&amp;nbsp; &amp;nbsp; &amp;nbsp; &amp;nbsp; &amp;nbsp; &amp;nbsp; &lt;/span&gt;&lt;span style=&quot;color: #89ddff;&quot;&gt;},&lt;/span&gt;&lt;/div&gt;&lt;div&gt;&lt;span style=&quot;color: #eeffff;&quot;&gt;&amp;nbsp; &amp;nbsp; &amp;nbsp; &amp;nbsp; &amp;nbsp; &amp;nbsp; &lt;/span&gt;&lt;span style=&quot;color: #89ddff;&quot;&gt;&quot;&lt;/span&gt;&lt;span style=&quot;color: #ffcb6b;&quot;&gt;snapChat&lt;/span&gt;&lt;span style=&quot;color: #89ddff;&quot;&gt;&quot;&lt;/span&gt;&lt;span style=&quot;color: #89ddff;&quot;&gt;:&lt;/span&gt;&lt;span style=&quot;color: #eeffff;&quot;&gt; &lt;/span&gt;&lt;span style=&quot;color: #89ddff;&quot;&gt;{&lt;/span&gt;&lt;/div&gt;&lt;div&gt;&lt;span style=&quot;color: #eeffff;&quot;&gt;&amp;nbsp; &amp;nbsp; &amp;nbsp; &amp;nbsp; &amp;nbsp; &amp;nbsp; &amp;nbsp; &amp;nbsp; &lt;/span&gt;&lt;span style=&quot;color: #89ddff;&quot;&gt;&quot;&lt;/span&gt;&lt;span style=&quot;color: #f78c6c;&quot;&gt;web&lt;/span&gt;&lt;span style=&quot;color: #89ddff;&quot;&gt;&quot;&lt;/span&gt;&lt;span style=&quot;color: #89ddff;&quot;&gt;:&lt;/span&gt;&lt;span style=&quot;color: #89ddff;&quot;&gt;&quot;&lt;/span&gt;&lt;span style=&quot;color: #c3e88d;&quot;&gt;snapchat.com&lt;/span&gt;&lt;span style=&quot;color: #89ddff;&quot;&gt;&quot;&lt;/span&gt;&lt;span style=&quot;color: #89ddff;&quot;&gt;,&lt;/span&gt;&lt;/div&gt;&lt;div&gt;&lt;span style=&quot;color: #eeffff;&quot;&gt;&amp;nbsp; &amp;nbsp; &amp;nbsp; &amp;nbsp; &amp;nbsp; &amp;nbsp; &amp;nbsp; &amp;nbsp; &lt;/span&gt;&lt;span style=&quot;color: #89ddff;&quot;&gt;&quot;&lt;/span&gt;&lt;span style=&quot;color: #f78c6c;&quot;&gt;android&lt;/span&gt;&lt;span style=&quot;color: #89ddff;&quot;&gt;&quot;&lt;/span&gt;&lt;span style=&quot;color: #89ddff;&quot;&gt;:&lt;/span&gt;&lt;span style=&quot;color: #89ddff;&quot;&gt;&quot;&lt;/span&gt;&lt;span style=&quot;color: #c3e88d;&quot;&gt;com.snapchat.android&lt;/span&gt;&lt;span style=&quot;color: #89ddff;&quot;&gt;&quot;&lt;/span&gt;&lt;/div&gt;&lt;div&gt;&lt;span style=&quot;color: #eeffff;&quot;&gt;&amp;nbsp; &amp;nbsp; &amp;nbsp; &amp;nbsp; &amp;nbsp; &amp;nbsp; &lt;/span&gt;&lt;span style=&quot;color: #89ddff;&quot;&gt;},&lt;/span&gt;&lt;/div&gt;&lt;div&gt;&lt;span style=&quot;color: #eeffff;&quot;&gt;&amp;nbsp; &amp;nbsp; &amp;nbsp; &amp;nbsp; &amp;nbsp; &amp;nbsp; &lt;/span&gt;&lt;span style=&quot;color: #89ddff;&quot;&gt;&quot;&lt;/span&gt;&lt;span style=&quot;color: #ffcb6b;&quot;&gt;twitch&lt;/span&gt;&lt;span style=&quot;color: #89ddff;&quot;&gt;&quot;&lt;/span&gt;&lt;span style=&quot;color: #89ddff;&quot;&gt;:&lt;/span&gt;&lt;span style=&quot;color: #eeffff;&quot;&gt; &lt;/span&gt;&lt;span style=&quot;color: #89ddff;&quot;&gt;{&lt;/span&gt;&lt;/div&gt;&lt;div&gt;&lt;span style=&quot;color: #eeffff;&quot;&gt;&amp;nbsp; &amp;nbsp; &amp;nbsp; &amp;nbsp; &amp;nbsp; &amp;nbsp; &amp;nbsp; &amp;nbsp; &lt;/span&gt;&lt;span style=&quot;color: #89ddff;&quot;&gt;&quot;&lt;/span&gt;&lt;span style=&quot;color: #f78c6c;&quot;&gt;web&lt;/span&gt;&lt;span style=&quot;color: #89ddff;&quot;&gt;&quot;&lt;/span&gt;&lt;span style=&quot;color: #89ddff;&quot;&gt;:&lt;/span&gt;&lt;span style=&quot;color: #89ddff;&quot;&gt;&quot;&lt;/span&gt;&lt;span style=&quot;color: #c3e88d;&quot;&gt;twitch.tv&lt;/span&gt;&lt;span style=&quot;color: #89ddff;&quot;&gt;&quot;&lt;/span&gt;&lt;span style=&quot;color: #89ddff;&quot;&gt;,&lt;/span&gt;&lt;/div&gt;&lt;div&gt;&lt;span style=&quot;color: #eeffff;&quot;&gt;&amp;nbsp; &amp;nbsp; &amp;nbsp; &amp;nbsp; &amp;nbsp; &amp;nbsp; &amp;nbsp; &amp;nbsp; &lt;/span&gt;&lt;span style=&quot;color: #89ddff;&quot;&gt;&quot;&lt;/span&gt;&lt;span style=&quot;color: #f78c6c;&quot;&gt;android&lt;/span&gt;&lt;span style=&quot;color: #89ddff;&quot;&gt;&quot;&lt;/span&gt;&lt;span style=&quot;color: #89ddff;&quot;&gt;:&lt;/span&gt;&lt;span style=&quot;color: #89ddff;&quot;&gt;&quot;&lt;/span&gt;&lt;span style=&quot;color: #c3e88d;&quot;&gt;tv.twitch.android.app&lt;/span&gt;&lt;span style=&quot;color: #89ddff;&quot;&gt;&quot;&lt;/span&gt;&lt;/div&gt;&lt;div&gt;&lt;span style=&quot;color: #eeffff;&quot;&gt;&amp;nbsp; &amp;nbsp; &amp;nbsp; &amp;nbsp; &amp;nbsp; &amp;nbsp; &lt;/span&gt;&lt;span style=&quot;color: #89ddff;&quot;&gt;},&lt;/span&gt;&lt;/div&gt;&lt;div&gt;&lt;span style=&quot;color: #eeffff;&quot;&gt;&amp;nbsp; &amp;nbsp; &amp;nbsp; &amp;nbsp; &amp;nbsp; &amp;nbsp; &lt;/span&gt;&lt;span style=&quot;color: #89ddff;&quot;&gt;&quot;&lt;/span&gt;&lt;span style=&quot;color: #ffcb6b;&quot;&gt;aws&lt;/span&gt;&lt;span style=&quot;color: #89ddff;&quot;&gt;&quot;&lt;/span&gt;&lt;span style=&quot;color: #89ddff;&quot;&gt;:&lt;/span&gt;&lt;span style=&quot;color: #eeffff;&quot;&gt; &lt;/span&gt;&lt;span style=&quot;color: #89ddff;&quot;&gt;{&lt;/span&gt;&lt;/div&gt;&lt;div&gt;&lt;span style=&quot;color: #eeffff;&quot;&gt;&amp;nbsp; &amp;nbsp; &amp;nbsp; &amp;nbsp; &amp;nbsp; &amp;nbsp; &amp;nbsp; &amp;nbsp; &lt;/span&gt;&lt;span style=&quot;color: #89ddff;&quot;&gt;&quot;&lt;/span&gt;&lt;span style=&quot;color: #f78c6c;&quot;&gt;web&lt;/span&gt;&lt;span style=&quot;color: #89ddff;&quot;&gt;&quot;&lt;/span&gt;&lt;span style=&quot;color: #89ddff;&quot;&gt;:&lt;/span&gt;&lt;span style=&quot;color: #89ddff;&quot;&gt;&quot;&lt;/span&gt;&lt;span style=&quot;color: #c3e88d;&quot;&gt;aws.amazon.com&lt;/span&gt;&lt;span style=&quot;color: #89ddff;&quot;&gt;&quot;&lt;/span&gt;&lt;span style=&quot;color: #89ddff;&quot;&gt;,&lt;/span&gt;&lt;/div&gt;&lt;div&gt;&lt;span style=&quot;color: #eeffff;&quot;&gt;&amp;nbsp; &amp;nbsp; &amp;nbsp; &amp;nbsp; &amp;nbsp; &amp;nbsp; &amp;nbsp; &amp;nbsp; &lt;/span&gt;&lt;span style=&quot;color: #89ddff;&quot;&gt;&quot;&lt;/span&gt;&lt;span style=&quot;color: #f78c6c;&quot;&gt;android&lt;/span&gt;&lt;span style=&quot;color: #89ddff;&quot;&gt;&quot;&lt;/span&gt;&lt;span style=&quot;color: #89ddff;&quot;&gt;:&lt;/span&gt;&lt;span style=&quot;color: #89ddff;&quot;&gt;&quot;&lt;/span&gt;&lt;span style=&quot;color: #c3e88d;&quot;&gt;aws&lt;/span&gt;&lt;span style=&quot;color: #89ddff;&quot;&gt;&quot;&lt;/span&gt;&lt;/div&gt;&lt;div&gt;&lt;span style=&quot;color: #eeffff;&quot;&gt;&amp;nbsp; &amp;nbsp; &amp;nbsp; &amp;nbsp; &amp;nbsp; &amp;nbsp; &lt;/span&gt;&lt;span style=&quot;color: #89ddff;&quot;&gt;},&lt;/span&gt;&lt;/div&gt;&lt;div&gt;&lt;span style=&quot;color: #eeffff;&quot;&gt;&amp;nbsp; &amp;nbsp; &amp;nbsp; &amp;nbsp; &amp;nbsp; &amp;nbsp; &lt;/span&gt;&lt;span style=&quot;color: #89ddff;&quot;&gt;&quot;&lt;/span&gt;&lt;span style=&quot;color: #ffcb6b;&quot;&gt;roblox&lt;/span&gt;&lt;span style=&quot;color: #89ddff;&quot;&gt;&quot;&lt;/span&gt;&lt;span style=&quot;color: #89ddff;&quot;&gt;:&lt;/span&gt;&lt;span style=&quot;color: #eeffff;&quot;&gt; &lt;/span&gt;&lt;span style=&quot;color: #89ddff;&quot;&gt;{&lt;/span&gt;&lt;/div&gt;&lt;div&gt;&lt;span style=&quot;color: #eeffff;&quot;&gt;&amp;nbsp; &amp;nbsp; &amp;nbsp; &amp;nbsp; &amp;nbsp; &amp;nbsp; &amp;nbsp; &amp;nbsp; &lt;/span&gt;&lt;span style=&quot;color: #89ddff;&quot;&gt;&quot;&lt;/span&gt;&lt;span style=&quot;color: #f78c6c;&quot;&gt;web&lt;/span&gt;&lt;span style=&quot;color: #89ddff;&quot;&gt;&quot;&lt;/span&gt;&lt;span style=&quot;color: #89ddff;&quot;&gt;:&lt;/span&gt;&lt;span style=&quot;color: #89ddff;&quot;&gt;&quot;&lt;/span&gt;&lt;span style=&quot;color: #c3e88d;&quot;&gt;roblox.com&lt;/span&gt;&lt;span style=&quot;color: #89ddff;&quot;&gt;&quot;&lt;/span&gt;&lt;span style=&quot;color: #89ddff;&quot;&gt;,&lt;/span&gt;&lt;/div&gt;&lt;div&gt;&lt;span style=&quot;color: #eeffff;&quot;&gt;&amp;nbsp; &amp;nbsp; &amp;nbsp; &amp;nbsp; &amp;nbsp; &amp;nbsp; &amp;nbsp; &amp;nbsp; &lt;/span&gt;&lt;span style=&quot;color: #89ddff;&quot;&gt;&quot;&lt;/span&gt;&lt;span style=&quot;color: #f78c6c;&quot;&gt;android&lt;/span&gt;&lt;span style=&quot;color: #89ddff;&quot;&gt;&quot;&lt;/span&gt;&lt;span style=&quot;color: #89ddff;&quot;&gt;:&lt;/span&gt;&lt;span style=&quot;color: #89ddff;&quot;&gt;&quot;&lt;/span&gt;&lt;span style=&quot;color: #c3e88d;&quot;&gt;com.roblox.client&lt;/span&gt;&lt;span style=&quot;color: #89ddff;&quot;&gt;&quot;&lt;/span&gt;&lt;/div&gt;&lt;div&gt;&lt;span style=&quot;color: #eeffff;&quot;&gt;&amp;nbsp; &amp;nbsp; &amp;nbsp; &amp;nbsp; &amp;nbsp; &amp;nbsp; &lt;/span&gt;&lt;span style=&quot;color: #89ddff;&quot;&gt;},&lt;/span&gt;&lt;/div&gt;&lt;div&gt;&lt;span style=&quot;color: #eeffff;&quot;&gt;&amp;nbsp; &amp;nbsp; &amp;nbsp; &amp;nbsp; &amp;nbsp; &amp;nbsp; &lt;/span&gt;&lt;span style=&quot;color: #89ddff;&quot;&gt;&quot;&lt;/span&gt;&lt;span style=&quot;color: #ffcb6b;&quot;&gt;crunchyroll&lt;/span&gt;&lt;span style=&quot;color: #89ddff;&quot;&gt;&quot;&lt;/span&gt;&lt;span style=&quot;color: #89ddff;&quot;&gt;:&lt;/span&gt;&lt;span style=&quot;color: #eeffff;&quot;&gt; &lt;/span&gt;&lt;span style=&quot;color: #89ddff;&quot;&gt;{&lt;/span&gt;&lt;/div&gt;&lt;div&gt;&lt;span style=&quot;color: #eeffff;&quot;&gt;&amp;nbsp; &amp;nbsp; &amp;nbsp; &amp;nbsp; &amp;nbsp; &amp;nbsp; &amp;nbsp; &amp;nbsp; &lt;/span&gt;&lt;span style=&quot;color: #89ddff;&quot;&gt;&quot;&lt;/span&gt;&lt;span style=&quot;color: #f78c6c;&quot;&gt;web&lt;/span&gt;&lt;span style=&quot;color: #89ddff;&quot;&gt;&quot;&lt;/span&gt;&lt;span style=&quot;color: #89ddff;&quot;&gt;:&lt;/span&gt;&lt;span style=&quot;color: #89ddff;&quot;&gt;&quot;&lt;/span&gt;&lt;span style=&quot;color: #c3e88d;&quot;&gt;crunchyroll.com&lt;/span&gt;&lt;span style=&quot;color: #89ddff;&quot;&gt;&quot;&lt;/span&gt;&lt;span style=&quot;color: #89ddff;&quot;&gt;,&lt;/span&gt;&lt;/div&gt;&lt;div&gt;&lt;span style=&quot;color: #eeffff;&quot;&gt;&amp;nbsp; &amp;nbsp; &amp;nbsp; &amp;nbsp; &amp;nbsp; &amp;nbsp; &amp;nbsp; &amp;nbsp; &lt;/span&gt;&lt;span style=&quot;color: #89ddff;&quot;&gt;&quot;&lt;/span&gt;&lt;span style=&quot;color: #f78c6c;&quot;&gt;android&lt;/span&gt;&lt;span style=&quot;color: #89ddff;&quot;&gt;&quot;&lt;/span&gt;&lt;span style=&quot;color: #89ddff;&quot;&gt;:&lt;/span&gt;&lt;span style=&quot;color: #89ddff;&quot;&gt;&quot;&lt;/span&gt;&lt;span style=&quot;color: #c3e88d;&quot;&gt;com.crunchyroll.crunchyroid&lt;/span&gt;&lt;span style=&quot;color: #89ddff;&quot;&gt;&quot;&lt;/span&gt;&lt;/div&gt;&lt;div&gt;&lt;span style=&quot;color: #eeffff;&quot;&gt;&amp;nbsp; &amp;nbsp; &amp;nbsp; &amp;nbsp; &amp;nbsp; &amp;nbsp; &lt;/span&gt;&lt;span style=&quot;color: #89ddff;&quot;&gt;},&lt;/span&gt;&lt;/div&gt;&lt;div&gt;&lt;span style=&quot;color: #eeffff;&quot;&gt;&amp;nbsp; &amp;nbsp; &amp;nbsp; &amp;nbsp; &amp;nbsp; &amp;nbsp; &lt;/span&gt;&lt;span style=&quot;color: #89ddff;&quot;&gt;&quot;&lt;/span&gt;&lt;span style=&quot;color: #ffcb6b;&quot;&gt;directv&lt;/span&gt;&lt;span style=&quot;color: #89ddff;&quot;&gt;&quot;&lt;/span&gt;&lt;span style=&quot;color: #89ddff;&quot;&gt;:&lt;/span&gt;&lt;span style=&quot;color: #eeffff;&quot;&gt; &lt;/span&gt;&lt;span style=&quot;color: #89ddff;&quot;&gt;{&lt;/span&gt;&lt;/div&gt;&lt;div&gt;&lt;span style=&quot;color: #eeffff;&quot;&gt;&amp;nbsp; &amp;nbsp; &amp;nbsp; &amp;nbsp; &amp;nbsp; &amp;nbsp; &amp;nbsp; &amp;nbsp; &lt;/span&gt;&lt;span style=&quot;color: #89ddff;&quot;&gt;&quot;&lt;/span&gt;&lt;span style=&quot;color: #f78c6c;&quot;&gt;url&lt;/span&gt;&lt;span style=&quot;color: #89ddff;&quot;&gt;&quot;&lt;/span&gt;&lt;span style=&quot;color: #89ddff;&quot;&gt;:&lt;/span&gt;&lt;span style=&quot;color: #89ddff;&quot;&gt;&quot;&lt;/span&gt;&lt;span style=&quot;color: #c3e88d;&quot;&gt;directvgo.com&lt;/span&gt;&lt;span style=&quot;color: #89ddff;&quot;&gt;&quot;&lt;/span&gt;&lt;span style=&quot;color: #89ddff;&quot;&gt;,&lt;/span&gt;&lt;/div&gt;&lt;div&gt;&lt;span style=&quot;color: #eeffff;&quot;&gt;&amp;nbsp; &amp;nbsp; &amp;nbsp; &amp;nbsp; &amp;nbsp; &amp;nbsp; &amp;nbsp; &amp;nbsp; &lt;/span&gt;&lt;span style=&quot;color: #89ddff;&quot;&gt;&quot;&lt;/span&gt;&lt;span style=&quot;color: #f78c6c;&quot;&gt;android&lt;/span&gt;&lt;span style=&quot;color: #89ddff;&quot;&gt;&quot;&lt;/span&gt;&lt;span style=&quot;color: #89ddff;&quot;&gt;:&lt;/span&gt;&lt;span style=&quot;color: #89ddff;&quot;&gt;&quot;&lt;/span&gt;&lt;span style=&quot;color: #c3e88d;&quot;&gt;la.directvapp&lt;/span&gt;&lt;span style=&quot;color: #89ddff;&quot;&gt;&quot;&lt;/span&gt;&lt;/div&gt;&lt;div&gt;&lt;span style=&quot;color: #eeffff;&quot;&gt;&amp;nbsp; &amp;nbsp; &amp;nbsp; &amp;nbsp; &amp;nbsp; &amp;nbsp; &lt;/span&gt;&lt;span style=&quot;color: #89ddff;&quot;&gt;}&lt;/span&gt;&lt;/div&gt;&lt;br&gt;&lt;br&gt;&lt;div&gt;&lt;span style=&quot;color: #eeffff;&quot;&gt;&amp;nbsp; &amp;nbsp; &amp;nbsp; &amp;nbsp; &lt;/span&gt;&lt;span style=&quot;color: #89ddff;&quot;&gt;}&lt;/span&gt;&lt;/div&gt;&lt;div&gt;&lt;span style=&quot;color: #eeffff;&quot;&gt;&amp;nbsp; &amp;nbsp; &lt;/span&gt;&lt;span style=&quot;color: #89ddff;&quot;&gt;}&lt;/span&gt;&lt;/div&gt;&lt;div&gt;&lt;span style=&quot;color: #89ddff;&quot;&gt;]&lt;/span&gt;&lt;/div&gt;&lt;/div&gt;" style="text;whiteSpace=wrap;html=1;" parent="WIyWlLk6GJQsqaUBKTNV-1" vertex="1">
          <mxGeometry x="1760" y="-1010" width="560" height="1140" as="geometry" />
        </mxCell>
        <mxCell id="QHBeRQjLNkS0FuJw2o_--9" value="" style="endArrow=classic;html=1;rounded=0;strokeColor=#CC0000;fillColor=#CC0000;strokeWidth=4;" parent="WIyWlLk6GJQsqaUBKTNV-1" edge="1">
          <mxGeometry width="50" height="50" relative="1" as="geometry">
            <mxPoint x="660" y="-280" as="sourcePoint" />
            <mxPoint x="1840" y="-820" as="targetPoint" />
            <Array as="points">
              <mxPoint x="480" y="-280" />
              <mxPoint x="480" y="-820" />
            </Array>
          </mxGeometry>
        </mxCell>
        <mxCell id="QHBeRQjLNkS0FuJw2o_--10" value="" style="endArrow=none;html=1;rounded=0;strokeColor=#0000FF;fillColor=#00FF00;strokeWidth=2;endFill=0;" parent="WIyWlLk6GJQsqaUBKTNV-1" edge="1">
          <mxGeometry width="50" height="50" relative="1" as="geometry">
            <mxPoint x="688" y="-200" as="sourcePoint" />
            <mxPoint x="1720" y="-800" as="targetPoint" />
            <Array as="points">
              <mxPoint x="520" y="-200" />
              <mxPoint x="520" y="-800" />
              <mxPoint x="1120" y="-800" />
            </Array>
          </mxGeometry>
        </mxCell>
        <mxCell id="QHBeRQjLNkS0FuJw2o_--13" value="" style="rounded=0;whiteSpace=wrap;html=1;shadow=0;fillColor=none;strokeWidth=4;strokeColor=#CC0000;" parent="WIyWlLk6GJQsqaUBKTNV-1" vertex="1">
          <mxGeometry x="660" y="-290" width="330" height="30" as="geometry" />
        </mxCell>
        <mxCell id="QHBeRQjLNkS0FuJw2o_--14" value="" style="rounded=0;whiteSpace=wrap;html=1;shadow=0;fillColor=none;strokeWidth=4;strokeColor=#0000FF;" parent="WIyWlLk6GJQsqaUBKTNV-1" vertex="1">
          <mxGeometry x="690" y="-210" width="200" height="20" as="geometry" />
        </mxCell>
        <mxCell id="QHBeRQjLNkS0FuJw2o_--15" value="" style="endArrow=none;html=1;rounded=0;strokeWidth=2;strokeColor=#0000FF;" parent="WIyWlLk6GJQsqaUBKTNV-1" edge="1">
          <mxGeometry width="50" height="50" relative="1" as="geometry">
            <mxPoint x="1720" y="-20" as="sourcePoint" />
            <mxPoint x="1720" y="-800" as="targetPoint" />
          </mxGeometry>
        </mxCell>
        <mxCell id="QHBeRQjLNkS0FuJw2o_--27" value="" style="endArrow=classic;html=1;rounded=0;strokeColor=#000000;fillColor=#CC0000;strokeWidth=4;exitX=0;exitY=0.5;exitDx=0;exitDy=0;" parent="WIyWlLk6GJQsqaUBKTNV-1" source="QHBeRQjLNkS0FuJw2o_--28" edge="1">
          <mxGeometry width="50" height="50" relative="1" as="geometry">
            <mxPoint x="594" y="-510" as="sourcePoint" />
            <mxPoint x="1810" y="-840" as="targetPoint" />
            <Array as="points">
              <mxPoint x="420" y="-505" />
              <mxPoint x="420" y="-840" />
            </Array>
          </mxGeometry>
        </mxCell>
        <mxCell id="QHBeRQjLNkS0FuJw2o_--28" value="" style="rounded=0;whiteSpace=wrap;html=1;shadow=0;fillColor=none;strokeWidth=4;strokeColor=#000000;" parent="WIyWlLk6GJQsqaUBKTNV-1" vertex="1">
          <mxGeometry x="594" y="-520" width="256" height="30" as="geometry" />
        </mxCell>
        <mxCell id="QHBeRQjLNkS0FuJw2o_--29" value="" style="endArrow=classic;html=1;rounded=0;labelBackgroundColor=default;strokeColor=#0000FF;strokeWidth=2;align=center;verticalAlign=middle;fontFamily=Helvetica;fontSize=11;fontColor=default;fillColor=#00FF00;shape=connector;" parent="WIyWlLk6GJQsqaUBKTNV-1" edge="1">
          <mxGeometry width="50" height="50" relative="1" as="geometry">
            <mxPoint x="1720" y="-800" as="sourcePoint" />
            <mxPoint x="1880" y="-800" as="targetPoint" />
          </mxGeometry>
        </mxCell>
        <mxCell id="QHBeRQjLNkS0FuJw2o_--32" value="" style="endArrow=classic;html=1;rounded=0;labelBackgroundColor=default;strokeColor=#0000FF;strokeWidth=2;align=center;verticalAlign=middle;fontFamily=Helvetica;fontSize=11;fontColor=default;fillColor=#00FF00;shape=connector;" parent="WIyWlLk6GJQsqaUBKTNV-1" edge="1">
          <mxGeometry width="50" height="50" relative="1" as="geometry">
            <mxPoint x="1720" y="-780" as="sourcePoint" />
            <mxPoint x="1880" y="-780" as="targetPoint" />
          </mxGeometry>
        </mxCell>
        <mxCell id="QHBeRQjLNkS0FuJw2o_--33" value="" style="endArrow=classic;html=1;rounded=0;labelBackgroundColor=default;strokeColor=#0000FF;strokeWidth=2;align=center;verticalAlign=middle;fontFamily=Helvetica;fontSize=11;fontColor=default;fillColor=#00FF00;shape=connector;" parent="WIyWlLk6GJQsqaUBKTNV-1" edge="1">
          <mxGeometry width="50" height="50" relative="1" as="geometry">
            <mxPoint x="1720" y="-720" as="sourcePoint" />
            <mxPoint x="1880" y="-720" as="targetPoint" />
          </mxGeometry>
        </mxCell>
        <mxCell id="QHBeRQjLNkS0FuJw2o_--34" value="" style="endArrow=classic;html=1;rounded=0;labelBackgroundColor=default;strokeColor=#0000FF;strokeWidth=2;align=center;verticalAlign=middle;fontFamily=Helvetica;fontSize=11;fontColor=default;fillColor=#00FF00;shape=connector;" parent="WIyWlLk6GJQsqaUBKTNV-1" edge="1">
          <mxGeometry width="50" height="50" relative="1" as="geometry">
            <mxPoint x="1720" y="-700" as="sourcePoint" />
            <mxPoint x="1880" y="-700" as="targetPoint" />
          </mxGeometry>
        </mxCell>
        <mxCell id="QHBeRQjLNkS0FuJw2o_--45" value="" style="endArrow=classic;html=1;rounded=0;labelBackgroundColor=default;strokeColor=#0000FF;strokeWidth=2;align=center;verticalAlign=middle;fontFamily=Helvetica;fontSize=11;fontColor=default;fillColor=#00FF00;shape=connector;" parent="WIyWlLk6GJQsqaUBKTNV-1" edge="1">
          <mxGeometry width="50" height="50" relative="1" as="geometry">
            <mxPoint x="1720" y="-650" as="sourcePoint" />
            <mxPoint x="1880" y="-650" as="targetPoint" />
          </mxGeometry>
        </mxCell>
        <mxCell id="QHBeRQjLNkS0FuJw2o_--46" value="" style="endArrow=classic;html=1;rounded=0;labelBackgroundColor=default;strokeColor=#0000FF;strokeWidth=2;align=center;verticalAlign=middle;fontFamily=Helvetica;fontSize=11;fontColor=default;fillColor=#00FF00;shape=connector;" parent="WIyWlLk6GJQsqaUBKTNV-1" edge="1">
          <mxGeometry width="50" height="50" relative="1" as="geometry">
            <mxPoint x="1720" y="-630" as="sourcePoint" />
            <mxPoint x="1880" y="-630" as="targetPoint" />
          </mxGeometry>
        </mxCell>
        <mxCell id="QHBeRQjLNkS0FuJw2o_--47" value="" style="endArrow=classic;html=1;rounded=0;labelBackgroundColor=default;strokeColor=#0000FF;strokeWidth=2;align=center;verticalAlign=middle;fontFamily=Helvetica;fontSize=11;fontColor=default;fillColor=#00FF00;shape=connector;" parent="WIyWlLk6GJQsqaUBKTNV-1" edge="1">
          <mxGeometry width="50" height="50" relative="1" as="geometry">
            <mxPoint x="1720" y="-570" as="sourcePoint" />
            <mxPoint x="1880" y="-570" as="targetPoint" />
          </mxGeometry>
        </mxCell>
        <mxCell id="QHBeRQjLNkS0FuJw2o_--48" value="" style="endArrow=classic;html=1;rounded=0;labelBackgroundColor=default;strokeColor=#0000FF;strokeWidth=2;align=center;verticalAlign=middle;fontFamily=Helvetica;fontSize=11;fontColor=default;fillColor=#00FF00;shape=connector;" parent="WIyWlLk6GJQsqaUBKTNV-1" edge="1">
          <mxGeometry width="50" height="50" relative="1" as="geometry">
            <mxPoint x="1720" y="-550" as="sourcePoint" />
            <mxPoint x="1880" y="-550" as="targetPoint" />
          </mxGeometry>
        </mxCell>
        <mxCell id="QHBeRQjLNkS0FuJw2o_--66" value="" style="endArrow=classic;html=1;rounded=0;labelBackgroundColor=default;strokeColor=#0000FF;strokeWidth=2;align=center;verticalAlign=middle;fontFamily=Helvetica;fontSize=11;fontColor=default;fillColor=#00FF00;shape=connector;" parent="WIyWlLk6GJQsqaUBKTNV-1" edge="1">
          <mxGeometry width="50" height="50" relative="1" as="geometry">
            <mxPoint x="1720" y="-500" as="sourcePoint" />
            <mxPoint x="1880" y="-500" as="targetPoint" />
          </mxGeometry>
        </mxCell>
        <mxCell id="QHBeRQjLNkS0FuJw2o_--67" value="" style="endArrow=classic;html=1;rounded=0;labelBackgroundColor=default;strokeColor=#0000FF;strokeWidth=2;align=center;verticalAlign=middle;fontFamily=Helvetica;fontSize=11;fontColor=default;fillColor=#00FF00;shape=connector;" parent="WIyWlLk6GJQsqaUBKTNV-1" edge="1">
          <mxGeometry width="50" height="50" relative="1" as="geometry">
            <mxPoint x="1720" y="-480" as="sourcePoint" />
            <mxPoint x="1880" y="-480" as="targetPoint" />
          </mxGeometry>
        </mxCell>
        <mxCell id="QHBeRQjLNkS0FuJw2o_--68" value="" style="endArrow=classic;html=1;rounded=0;labelBackgroundColor=default;strokeColor=#0000FF;strokeWidth=2;align=center;verticalAlign=middle;fontFamily=Helvetica;fontSize=11;fontColor=default;fillColor=#00FF00;shape=connector;" parent="WIyWlLk6GJQsqaUBKTNV-1" edge="1">
          <mxGeometry width="50" height="50" relative="1" as="geometry">
            <mxPoint x="1720" y="-420" as="sourcePoint" />
            <mxPoint x="1880" y="-420" as="targetPoint" />
          </mxGeometry>
        </mxCell>
        <mxCell id="QHBeRQjLNkS0FuJw2o_--69" value="" style="endArrow=classic;html=1;rounded=0;labelBackgroundColor=default;strokeColor=#0000FF;strokeWidth=2;align=center;verticalAlign=middle;fontFamily=Helvetica;fontSize=11;fontColor=default;fillColor=#00FF00;shape=connector;" parent="WIyWlLk6GJQsqaUBKTNV-1" edge="1">
          <mxGeometry width="50" height="50" relative="1" as="geometry">
            <mxPoint x="1720" y="-400" as="sourcePoint" />
            <mxPoint x="1880" y="-400" as="targetPoint" />
          </mxGeometry>
        </mxCell>
        <mxCell id="QHBeRQjLNkS0FuJw2o_--70" value="" style="endArrow=classic;html=1;rounded=0;labelBackgroundColor=default;strokeColor=#0000FF;strokeWidth=2;align=center;verticalAlign=middle;fontFamily=Helvetica;fontSize=11;fontColor=default;fillColor=#00FF00;shape=connector;" parent="WIyWlLk6GJQsqaUBKTNV-1" edge="1">
          <mxGeometry width="50" height="50" relative="1" as="geometry">
            <mxPoint x="1720" y="-350" as="sourcePoint" />
            <mxPoint x="1880" y="-350" as="targetPoint" />
          </mxGeometry>
        </mxCell>
        <mxCell id="QHBeRQjLNkS0FuJw2o_--71" value="" style="endArrow=classic;html=1;rounded=0;labelBackgroundColor=default;strokeColor=#0000FF;strokeWidth=2;align=center;verticalAlign=middle;fontFamily=Helvetica;fontSize=11;fontColor=default;fillColor=#00FF00;shape=connector;" parent="WIyWlLk6GJQsqaUBKTNV-1" edge="1">
          <mxGeometry width="50" height="50" relative="1" as="geometry">
            <mxPoint x="1720" y="-330" as="sourcePoint" />
            <mxPoint x="1880" y="-330" as="targetPoint" />
          </mxGeometry>
        </mxCell>
        <mxCell id="QHBeRQjLNkS0FuJw2o_--72" value="" style="endArrow=classic;html=1;rounded=0;labelBackgroundColor=default;strokeColor=#0000FF;strokeWidth=2;align=center;verticalAlign=middle;fontFamily=Helvetica;fontSize=11;fontColor=default;fillColor=#00FF00;shape=connector;" parent="WIyWlLk6GJQsqaUBKTNV-1" edge="1">
          <mxGeometry width="50" height="50" relative="1" as="geometry">
            <mxPoint x="1720" y="-270" as="sourcePoint" />
            <mxPoint x="1880" y="-270" as="targetPoint" />
          </mxGeometry>
        </mxCell>
        <mxCell id="QHBeRQjLNkS0FuJw2o_--73" value="" style="endArrow=classic;html=1;rounded=0;labelBackgroundColor=default;strokeColor=#0000FF;strokeWidth=2;align=center;verticalAlign=middle;fontFamily=Helvetica;fontSize=11;fontColor=default;fillColor=#00FF00;shape=connector;" parent="WIyWlLk6GJQsqaUBKTNV-1" edge="1">
          <mxGeometry width="50" height="50" relative="1" as="geometry">
            <mxPoint x="1720" y="-250" as="sourcePoint" />
            <mxPoint x="1880" y="-250" as="targetPoint" />
          </mxGeometry>
        </mxCell>
        <mxCell id="QHBeRQjLNkS0FuJw2o_--74" value="" style="endArrow=classic;html=1;rounded=0;labelBackgroundColor=default;strokeColor=#0000FF;strokeWidth=2;align=center;verticalAlign=middle;fontFamily=Helvetica;fontSize=11;fontColor=default;fillColor=#00FF00;shape=connector;" parent="WIyWlLk6GJQsqaUBKTNV-1" edge="1">
          <mxGeometry width="50" height="50" relative="1" as="geometry">
            <mxPoint x="1720" y="-200" as="sourcePoint" />
            <mxPoint x="1880" y="-200" as="targetPoint" />
          </mxGeometry>
        </mxCell>
        <mxCell id="QHBeRQjLNkS0FuJw2o_--75" value="" style="endArrow=classic;html=1;rounded=0;labelBackgroundColor=default;strokeColor=#0000FF;strokeWidth=2;align=center;verticalAlign=middle;fontFamily=Helvetica;fontSize=11;fontColor=default;fillColor=#00FF00;shape=connector;" parent="WIyWlLk6GJQsqaUBKTNV-1" edge="1">
          <mxGeometry width="50" height="50" relative="1" as="geometry">
            <mxPoint x="1720" y="-180" as="sourcePoint" />
            <mxPoint x="1880" y="-180" as="targetPoint" />
          </mxGeometry>
        </mxCell>
        <mxCell id="QHBeRQjLNkS0FuJw2o_--76" value="" style="endArrow=classic;html=1;rounded=0;labelBackgroundColor=default;strokeColor=#0000FF;strokeWidth=2;align=center;verticalAlign=middle;fontFamily=Helvetica;fontSize=11;fontColor=default;fillColor=#00FF00;shape=connector;" parent="WIyWlLk6GJQsqaUBKTNV-1" edge="1">
          <mxGeometry width="50" height="50" relative="1" as="geometry">
            <mxPoint x="1720" y="-120" as="sourcePoint" />
            <mxPoint x="1880" y="-120" as="targetPoint" />
          </mxGeometry>
        </mxCell>
        <mxCell id="QHBeRQjLNkS0FuJw2o_--77" value="" style="endArrow=classic;html=1;rounded=0;labelBackgroundColor=default;strokeColor=#0000FF;strokeWidth=2;align=center;verticalAlign=middle;fontFamily=Helvetica;fontSize=11;fontColor=default;fillColor=#00FF00;shape=connector;" parent="WIyWlLk6GJQsqaUBKTNV-1" edge="1">
          <mxGeometry width="50" height="50" relative="1" as="geometry">
            <mxPoint x="1720" y="-100" as="sourcePoint" />
            <mxPoint x="1880" y="-100" as="targetPoint" />
          </mxGeometry>
        </mxCell>
        <mxCell id="QHBeRQjLNkS0FuJw2o_--78" value="" style="endArrow=classic;html=1;rounded=0;labelBackgroundColor=default;strokeColor=#0000FF;strokeWidth=2;align=center;verticalAlign=middle;fontFamily=Helvetica;fontSize=11;fontColor=default;fillColor=#00FF00;shape=connector;" parent="WIyWlLk6GJQsqaUBKTNV-1" edge="1">
          <mxGeometry width="50" height="50" relative="1" as="geometry">
            <mxPoint x="1720" y="-40" as="sourcePoint" />
            <mxPoint x="1880" y="-40" as="targetPoint" />
          </mxGeometry>
        </mxCell>
        <mxCell id="QHBeRQjLNkS0FuJw2o_--79" value="" style="endArrow=classic;html=1;rounded=0;labelBackgroundColor=default;strokeColor=#0000FF;strokeWidth=2;align=center;verticalAlign=middle;fontFamily=Helvetica;fontSize=11;fontColor=default;fillColor=#00FF00;shape=connector;" parent="WIyWlLk6GJQsqaUBKTNV-1" edge="1">
          <mxGeometry width="50" height="50" relative="1" as="geometry">
            <mxPoint x="1720" y="-20" as="sourcePoint" />
            <mxPoint x="1880" y="-20" as="targetPoint" />
          </mxGeometry>
        </mxCell>
      </root>
    </mxGraphModel>
  </diagram>
</mxfile>
